<?xml version="1.0" encoding="UTF-8" standalone="no"?>
<!-- Created with Inkscape (http://www.inkscape.org/) -->
<svg
   xmlns:dc="http://purl.org/dc/elements/1.1/"
   xmlns:cc="http://web.resource.org/cc/"
   xmlns:rdf="http://www.w3.org/1999/02/22-rdf-syntax-ns#"
   xmlns:svg="http://www.w3.org/2000/svg"
   xmlns="http://www.w3.org/2000/svg"
   xmlns:xlink="http://www.w3.org/1999/xlink"
   xmlns:sodipodi="http://inkscape.sourceforge.net/DTD/sodipodi-0.dtd"
   xmlns:inkscape="http://www.inkscape.org/namespaces/inkscape"
   width="300pt"
   height="300pt"
   id="svg2"
   sodipodi:version="0.32"
   inkscape:version="0.43"
   sodipodi:docbase="S:\Groups\Security\STE\jaf\Stuff\Explorer"
   sodipodi:docname="sav_back.svg"
   version="1.0">
  <defs
     id="defs4">
    <linearGradient
       id="linearGradient9619">
      <stop
         style="stop-color:#bbbbbb;stop-opacity:1;"
         offset="0"
         id="stop9621" />
      <stop
         style="stop-color:#ffffff;stop-opacity:1;"
         offset="1"
         id="stop9623" />
    </linearGradient>
    <linearGradient
       inkscape:collect="always"
       id="linearGradient5196">
      <stop
         style="stop-color:#c9c9c9;stop-opacity:1;"
         offset="0"
         id="stop5198" />
      <stop
         style="stop-color:#c9c9c9;stop-opacity:0;"
         offset="1"
         id="stop5200" />
    </linearGradient>
    <linearGradient
       inkscape:collect="always"
       xlink:href="#linearGradient5196"
       id="linearGradient5202"
       x1="-776.40326"
       y1="619.61285"
       x2="-774.98901"
       y2="430.10822"
       gradientUnits="userSpaceOnUse" />
    <linearGradient
       inkscape:collect="always"
       xlink:href="#linearGradient9619"
       id="linearGradient9625"
       x1="-1027.219"
       y1="350.91223"
       x2="-490.02499"
       y2="295.75793"
       gradientUnits="userSpaceOnUse" />
    <linearGradient
       inkscape:collect="always"
       xlink:href="#linearGradient9619"
       id="linearGradient4073"
       gradientUnits="userSpaceOnUse"
       x1="-1027.219"
       y1="350.91223"
       x2="-490.02499"
       y2="295.75793" />
    <linearGradient
       inkscape:collect="always"
       xlink:href="#linearGradient5196"
       id="linearGradient4075"
       gradientUnits="userSpaceOnUse"
       x1="-776.40326"
       y1="619.61285"
       x2="-774.98901"
       y2="430.10822" />
    <linearGradient
       inkscape:collect="always"
       xlink:href="#linearGradient5196"
       id="linearGradient6733"
       gradientUnits="userSpaceOnUse"
       x1="-776.40326"
       y1="619.61285"
       x2="-774.98901"
       y2="430.10822"
       gradientTransform="matrix(0.467111,0,0,0.487697,583.26,486.2726)" />
    <linearGradient
       inkscape:collect="always"
       xlink:href="#linearGradient9619"
       id="linearGradient6736"
       gradientUnits="userSpaceOnUse"
       x1="-1027.219"
       y1="350.91223"
       x2="-490.02499"
       y2="295.75793"
       gradientTransform="matrix(0.467111,0,0,0.487697,583.26,486.2726)" />
    <linearGradient
       inkscape:collect="always"
       xlink:href="#linearGradient9619"
       id="linearGradient7649"
       gradientUnits="userSpaceOnUse"
       gradientTransform="matrix(0.467111,0,0,0.487697,583.26,486.2726)"
       x1="-1027.219"
       y1="350.91223"
       x2="-490.02499"
       y2="295.75793" />
    <linearGradient
       inkscape:collect="always"
       xlink:href="#linearGradient5196"
       id="linearGradient7651"
       gradientUnits="userSpaceOnUse"
       gradientTransform="matrix(0.467111,0,0,0.487697,583.26,486.2726)"
       x1="-776.40326"
       y1="619.61285"
       x2="-774.98901"
       y2="430.10822" />
    <linearGradient
       inkscape:collect="always"
       xlink:href="#linearGradient5196"
       id="linearGradient1360"
       gradientUnits="userSpaceOnUse"
       gradientTransform="matrix(0.441304,0,0,0.460753,553.6492,508.81)"
       x1="-776.40326"
       y1="619.61285"
       x2="-774.98901"
       y2="430.10822" />
    <linearGradient
       inkscape:collect="always"
       xlink:href="#linearGradient9619"
       id="linearGradient1363"
       gradientUnits="userSpaceOnUse"
       gradientTransform="matrix(0.441304,0,0,0.460753,553.6492,508.81)"
       x1="-1027.219"
       y1="350.91223"
       x2="-490.02499"
       y2="295.75793" />
  </defs>
  <sodipodi:namedview
     id="base"
     pagecolor="#ffffff"
     bordercolor="#666666"
     borderopacity="1.0"
     inkscape:pageopacity="0.0"
     inkscape:pageshadow="2"
     inkscape:zoom="1.172198"
     inkscape:cx="353.53739"
     inkscape:cy="206.72519"
     inkscape:document-units="px"
     inkscape:current-layer="layer1"
     inkscape:window-width="1280"
     inkscape:window-height="977"
     inkscape:window-x="-4"
     inkscape:window-y="-4"
     showguides="true"
     inkscape:guide-bbox="true" />
  <metadata
     id="metadata7">
    <rdf:RDF>
      <cc:Work
         rdf:about="">
        <dc:format>image/svg+xml</dc:format>
        <dc:type
           rdf:resource="http://purl.org/dc/dcmitype/StillImage" />
      </cc:Work>
    </rdf:RDF>
  </metadata>
  <g
     inkscape:label="Layer 1"
     inkscape:groupmode="layer"
     id="layer1">
    <path
       style="fill:url(#linearGradient1363);fill-opacity:1;fill-rule:evenodd;stroke:#000000;stroke-width:0.45092353px;stroke-linecap:butt;stroke-linejoin:miter;stroke-opacity:1;display:none"
       d="M 82.143025,696.88368 L 107.41898,644.10385 L 117.40455,631.72341 L 142.68053,627.48799 L 192.92043,624.55577 L 258.45074,625.85898 L 301.20146,631.39761 L 309.31474,634.65562 L 329.90998,671.47117 L 343.64014,702.0965 L 304.634,694.92888 L 287.78335,693.62567 L 268.12426,692.32246 L 242.84829,691.01926 L 211.33133,690.69346 L 178.56617,691.67086 L 149.85765,692.32246 L 125.82988,694.60307 L 83.079163,701.7707"
       id="path8734" />
    <path
       style="fill:url(#linearGradient1360);fill-opacity:1;fill-rule:evenodd;stroke:#000000;stroke-width:0.45092353px;stroke-linecap:butt;stroke-linejoin:miter;stroke-opacity:1;display:none"
       d="M 121.14915,717.40916 L 136.1275,783.22104 L 139.87209,791.04027 L 147.36127,794.29829 L 174.82158,794.29829 L 212.26747,794.94989 L 277.17368,793.64668 L 282.16647,791.69188 L 287.15926,787.13066 L 289.65565,775.40181 L 302.13761,716.10596 L 279.04598,715.45436 L 272.805,738.91205 L 267.18812,749.98931 L 154.85044,748.6861 L 149.85765,733.69923 L 145.48897,715.45436 L 121.14915,717.40916 z "
       id="path5172" />
    <g
       id="g1354"
       transform="translate(0.42655,-1.144409e-5)">
      <path
         id="path1365"
         d="M 113.25559,50.000613 C 112.4088,50.010967 111.53291,50.150375 111.14163,50.470382 C 109.56963,51.756074 109.12527,55.080451 107.03116,57.16459 C 105.4918,58.696582 98.869939,59.524071 96.431989,60.159368 C 94.155263,60.752648 90.885971,62.330555 89.268011,63.94688 C 81.35371,71.853158 59.003134,118.45407 50.893756,143.95441 C 49.762271,147.51235 48.185529,149.92024 46.665835,150.61926 C 46.572605,150.66036 46.442235,150.72992 46.342869,150.76606 C 46.340144,150.76601 46.316581,150.76635 46.313508,150.76606 C 46.310803,150.76601 46.287107,150.76634 46.284148,150.76606 C 42.684158,151.646 40.802357,167.69412 44.023385,169.99723 C 46.394544,171.6927 46.741496,177.55703 44.698678,181.12489 C 43.942434,182.51552 40.628496,194.26635 40.353314,200.38542 C 40.071368,206.79725 40.167887,212.32992 42.291111,223.11049 C 42.838157,225.88815 44.634488,229.17998 45.34461,230.42127 C 45.341547,230.42135 45.31835,230.42097 45.315249,230.42127 C 45.311717,230.4248 45.288736,230.41854 45.285889,230.42127 C 45.283042,230.424 45.286687,230.45032 45.285889,230.45063 C 45.285889,230.45063 45.256528,230.42127 45.256528,230.42127 C 45.253681,230.42122 45.257336,230.45012 45.256528,230.45063 C 45.25324,230.45319 45.230484,230.47715 45.227168,230.47999 C 45.223842,230.4834 45.201152,230.50564 45.197807,230.50935 C 45.19791,230.51199 45.198653,230.53763 45.197807,230.53871 C 45.19497,230.5413 45.171951,230.53564 45.168447,230.53871 C 45.165609,230.54133 45.169301,230.56684 45.168447,230.56807 C 45.161278,230.57909 45.146311,230.58496 45.139086,230.59743 C 44.686125,231.42369 44.114839,235.20862 44.082106,248.03761 C 44.011753,275.61232 44.273114,302.96067 44.639956,308.84333 C 45.535092,323.19764 46.780703,324.00247 70.741496,324.66868 C 98.243878,325.4333 101.97169,325.06732 105.064,321.49774 C 106.65642,319.65938 107.59694,316.74542 107.38348,314.3044 C 107.18619,312.04817 107.5578,304.61625 108.20558,297.80376 C 108.83811,291.15137 109.31271,288.02928 109.99657,286.99907 C 109.99996,286.99613 110.02308,286.97233 110.02593,286.96971 C 110.04876,286.94008 110.09134,286.87984 110.11401,286.85227 C 110.11756,286.84898 110.1392,286.82671 110.14338,286.82291 C 110.14888,286.81225 110.16722,286.77479 110.17274,286.76419 C 110.18409,286.75898 110.22008,286.73995 110.23146,286.73483 C 110.23152,286.72799 110.23158,286.70646 110.23146,286.70547 C 110.23609,286.70575 110.28665,286.70526 110.29018,286.70547 C 110.31078,286.69768 110.35616,286.6839 110.37826,286.67611 C 110.37806,286.67261 110.37829,286.64949 110.37826,286.64675 C 110.38133,286.64353 110.40106,286.6235 110.40762,286.61739 C 110.41179,286.61765 110.4335,286.61729 110.43698,286.61739 C 110.44341,286.61742 110.46217,286.61734 110.46634,286.61739 C 110.4771,286.6176 110.51048,286.61758 110.52506,286.61739 C 110.5318,286.61741 110.54927,286.61712 110.55442,286.61739 C 110.56061,286.61753 110.57852,286.61756 110.58378,286.61739 C 110.59755,286.617 110.64662,286.6174 110.67187,286.61739 C 110.67901,286.61726 110.72377,286.61721 110.73059,286.61739 C 110.73418,286.61733 110.75573,286.61749 110.75995,286.61739 C 110.76317,286.61721 110.78654,286.61742 110.78931,286.61739 C 110.79642,286.62396 110.81729,286.64539 110.81867,286.64675 C 110.98161,286.70604 111.16408,286.82768 111.34716,286.96971 C 111.80475,287.3247 112.23474,287.56829 112.55094,287.67437 C 112.55412,287.67414 112.57749,287.67442 112.5803,287.67437 C 112.62169,287.68481 112.66665,287.69731 112.69774,287.70373 C 112.70092,287.70397 112.71885,287.7038 112.7271,287.70373 C 112.73797,287.70355 112.77116,287.70358 112.78583,287.70373 C 112.7925,287.70372 112.81021,287.70394 112.81519,287.70373 C 112.82112,287.70358 112.83955,287.70362 112.84455,287.70373 C 112.84937,287.70362 112.86708,287.70374 112.87391,287.70373 C 112.88069,287.70363 112.95745,287.70426 112.96199,287.70373 C 112.96507,287.70396 112.9885,287.70371 112.99135,287.70373 C 113.00242,287.69849 113.03958,287.6795 113.05007,287.67437 C 113.05647,287.66832 113.07538,287.64902 113.07943,287.64501 C 113.08237,287.64495 113.10519,287.64472 113.10879,287.64501 C 113.11426,287.63446 113.13275,287.59696 113.13815,287.58629 C 113.14408,287.58083 113.16228,287.56184 113.16751,287.55693 C 113.17393,287.55097 113.19254,287.5313 113.19687,287.52756 C 113.19984,287.52757 113.22243,287.52742 113.22623,287.52756 C 113.23126,287.51888 113.24751,287.48443 113.25559,287.46884 C 113.2556,287.46603 113.25586,287.44246 113.25559,287.43948 C 113.25666,287.43656 113.25438,287.41413 113.25559,287.41012 C 113.26088,287.3908 113.27954,287.34334 113.28496,287.32204 C 113.28484,287.31826 113.28501,287.29597 113.28496,287.29268 C 113.28515,287.28522 113.28503,287.27102 113.28496,287.26332 C 113.28381,287.23161 113.28496,287.17807 113.28496,287.14588 C 113.28503,287.13948 113.2852,287.11862 113.28496,287.11652 C 113.28872,287.1165 113.30969,287.11621 113.31432,287.11652 C 113.31439,287.11012 113.31452,287.08926 113.31432,287.08716 C 113.32166,287.0872 113.34183,287.08715 113.34368,287.08716 C 113.3455,287.08719 113.36569,287.08713 113.37304,287.08716 C 113.37288,287.08544 113.373,287.06435 113.37304,287.0578 C 113.37495,287.05601 113.42981,287.02988 113.43176,287.02844 C 113.43544,287.02842 113.4569,287.02813 113.46112,287.02844 C 116.11824,286.18953 150.82358,285.64396 187.50846,285.29616 L 187.50846,280.21678 C 133.40618,280.36238 98.22582,282.387 76.261282,277.42753 C 65.12678,274.91342 57.330334,270.5639 52.361784,263.21702 C 47.393235,255.87014 45.298479,245.64366 45.197807,231.44889 L 46.607114,231.41953 C 46.706827,245.47827 48.804365,255.42742 53.536207,262.42428 C 58.268049,269.42115 65.651333,273.579 76.584248,276.04758 C 98.151136,280.91728 133.37179,278.9515 187.50846,278.80748 L 187.50846,224.96021 C 116.52139,225.09717 60.492415,224.77748 57.118195,224.22619 C 57.111149,224.22625 57.090573,224.22616 57.088835,224.22619 C 57.087181,224.22623 57.066596,224.22614 57.059474,224.22619 C 57.059737,224.22272 57.059549,224.1997 57.059474,224.19683 C 57.055265,224.19281 57.036409,224.17326 57.030114,224.16747 C 57.026412,224.16756 57.005178,224.16719 57.000753,224.16747 C 57.000593,224.16438 57.000678,224.1406 57.000753,224.13811 C 57.003196,224.13819 57.027107,224.13782 57.030114,224.13811 C 57.032425,224.13829 57.050596,224.13817 57.059474,224.13811 C 57.05954,224.1317 57.059681,224.11083 57.059474,224.10875 C 57.066756,224.10887 57.086984,224.10881 57.088835,224.10875 C 57.092405,224.10898 57.1175,224.10889 57.118195,224.10875 C 60.354857,223.52221 117.81887,222.86035 187.50846,222.55264 L 187.50846,218.23664 L 63.63624,218.85321 C 59.696748,188.75179 64.019224,160.94135 71.299347,134.99944 L 187.50846,134.41223 L 187.50846,129.30349 C 129.28611,129.60254 74.093101,129.99625 72.943539,129.86134 C 67.730484,128.7663 93.690614,74.090424 99.720372,72.167838 C 106.81881,69.904547 145.69708,68.547121 187.50846,68.321604 L 187.50846,55.960807 C 150.65834,56.405115 115.93882,57.076518 115.75124,57.076509 C 115.75125,57.076509 116.11728,51.64176 115.25211,50.35294 C 115.25021,50.350093 115.25436,50.326398 115.25211,50.323579 C 115.2492,50.320808 115.22599,50.296971 115.22275,50.294219 C 115.21113,50.28612 115.17842,50.272713 115.16403,50.264858 C 114.8688,50.11472 114.07417,49.990607 113.25559,50.000613 z M 70.271727,134.99944 C 68.895267,139.91704 67.583484,144.88751 66.454854,149.94397 C 64.440447,149.00093 56.451105,148.64645 52.332424,149.15123 C 53.351071,144.72748 54.55694,140.05325 55.943773,135.08752 L 70.271727,134.99944 z M 183.63286,141.66429 C 183.6206,141.66476 183.61542,141.69301 183.6035,141.69365 C 183.59883,141.6939 183.57971,141.6938 183.57414,141.69365 C 183.56289,141.69389 183.49912,141.69429 183.48606,141.69365 C 183.48215,141.69364 183.46021,141.69343 183.4567,141.69365 C 183.44609,141.69327 183.40859,141.69379 183.39798,141.69365 C 183.39525,141.69356 183.37168,141.69389 183.36862,141.69365 C 183.3669,141.69351 183.3409,141.69376 183.33926,141.69365 C 183.32603,141.7048 183.29342,141.71058 183.28054,141.72301 C 183.27809,141.72498 183.2828,141.75109 183.28054,141.75237 C 183.27781,141.75233 183.2543,141.75263 183.25118,141.75237 C 183.24764,141.75228 183.22622,141.75258 183.22182,141.75237 C 183.20092,141.76429 183.15405,141.79886 183.13373,141.81109 C 183.12555,141.81869 183.07873,141.83699 183.07501,141.84045 C 183.0713,141.84043 183.05011,141.84072 183.04565,141.84045 C 183.04522,141.84075 183.01981,141.84065 183.01629,141.84045 C 183.01443,141.84048 182.99421,141.84057 182.98693,141.84045 C 182.98695,141.84316 182.98702,141.86658 182.98693,141.86981 C 182.98037,141.87559 182.96388,141.89314 182.95757,141.89917 C 182.95111,141.91119 182.93132,141.95227 182.92821,141.9579 C 182.92813,141.96627 182.9279,141.98531 182.92821,141.98726 C 182.92463,141.98716 182.90359,141.98749 182.89885,141.98726 C 182.89252,141.99335 182.87294,142.01383 182.86949,142.01662 C 182.86613,142.01952 182.84655,142.04005 182.84013,142.04598 C 182.84006,142.05399 182.83986,142.10208 182.84013,142.1047 C 182.84025,142.10898 182.84013,142.13063 182.84013,142.13406 C 182.83328,142.14052 182.81309,142.16156 182.81077,142.16342 C 182.81055,142.16421 182.81074,142.18477 182.81077,142.19278 C 182.81071,142.2084 182.8109,142.24504 182.81077,142.2515 C 182.81108,142.27006 182.81049,142.28898 182.81077,142.31022 C 182.81056,142.32339 182.81071,142.3856 182.81077,142.3983 C 182.86511,142.78193 183.20084,143.32475 183.66222,144.13058 C 184.1594,144.99895 184.37307,145.60842 184.4256,145.95093 C 184.43117,145.96068 184.47862,145.99883 184.48432,146.00965 C 184.48429,146.01235 184.48447,146.03577 184.48432,146.03901 C 184.48438,146.04504 184.48427,146.05767 184.48432,146.06837 C 184.48447,146.07279 184.48444,146.09425 184.48432,146.09774 C 184.48045,146.09776 184.43037,146.09796 184.4256,146.09774 C 184.42563,146.10016 184.42546,146.12431 184.4256,146.1271 C 184.42575,146.12995 184.42556,146.18342 184.4256,146.18582 C 184.42555,146.19421 184.42529,146.21336 184.4256,146.21518 C 184.42421,146.21686 184.4028,146.23856 184.39624,146.24454 C 184.38555,146.249 184.34967,146.26804 184.33752,146.2739 C 184.33377,146.27396 184.31289,146.27409 184.30816,146.2739 C 184.30277,146.28444 184.28427,146.32199 184.2788,146.33262 C 184.2751,146.33261 184.25409,146.33275 184.24944,146.33262 C 184.24359,146.3324 184.19586,146.33271 184.19071,146.33262 C 184.18759,146.33288 184.16705,146.33273 184.16135,146.33262 C 184.15275,146.33287 184.1409,146.33265 184.13199,146.33262 C 184.1181,146.3322 184.0647,146.33271 184.04391,146.33262 C 183.76596,146.30359 183.35426,146.17521 182.81077,145.98029 C 182.212,145.76551 181.67045,145.67327 181.34274,145.68669 C 181.33957,145.68658 181.28683,145.6867 181.28402,145.68669 C 181.24685,145.69459 181.19598,145.71065 181.16658,145.71605 C 181.16376,145.716 181.14041,145.71623 181.13722,145.71605 C 181.13363,145.71599 181.11223,145.71631 181.10785,145.71605 C 181.10431,145.71584 181.0831,145.71633 181.07849,145.71605 C 181.07665,145.71609 181.05641,145.71616 181.04913,145.71605 C 181.04921,145.72283 181.04909,145.74371 181.04913,145.74541 C 181.04933,145.74749 181.04894,145.7728 181.04913,145.77477 C 181.04078,145.7826 181.02274,145.80111 181.01977,145.80413 C 181.01706,145.80649 180.99373,145.8307 180.99041,145.83349 C 180.99048,145.83587 180.9908,145.89085 180.99041,145.89221 C 180.99064,145.90281 180.9904,145.91532 180.99041,145.92157 C 180.99034,145.92458 180.99062,145.94749 180.99041,145.95093 C 180.99015,145.95475 180.99038,145.97286 180.99041,145.98029 C 180.99012,145.9842 180.99045,146.03567 180.99041,146.03901 C 180.99268,146.04091 181.01294,146.06192 181.01977,146.06837 C 181.01955,146.08105 181.02016,146.11374 181.01977,146.1271 C 181.02628,146.1332 181.04557,146.15339 181.04913,146.15646 C 181.04924,146.15928 181.04939,146.18242 181.04913,146.18582 C 181.05372,146.18548 181.10419,146.18587 181.10785,146.18582 C 181.11454,146.19845 181.13019,146.23113 181.13722,146.24454 C 181.14069,146.24794 181.16251,146.27027 181.16658,146.2739 C 181.1723,146.27892 181.19001,146.29827 181.19594,146.30326 C 181.20808,146.31301 181.24161,146.32301 181.25466,146.33262 C 182.09801,146.92887 184.68221,147.26817 187.50846,147.30152 L 187.50846,141.98726 C 186.68398,141.90777 185.87834,141.87639 185.21833,141.81109 C 184.54415,141.7444 184.01284,141.64972 183.63286,141.66429 z M 178.52413,142.42766 C 178.51231,142.42813 178.50652,142.45624 178.49476,142.45703 C 178.49169,142.45694 178.46814,142.45703 178.4654,142.45703 C 178.45494,142.45681 178.41722,142.45713 178.40668,142.45703 C 178.39616,142.45678 178.35849,142.45716 178.34796,142.45703 C 178.3454,142.45715 178.32123,142.45709 178.3186,142.45703 C 178.31592,142.45681 178.29191,142.45719 178.28924,142.45703 C 177.02965,142.68476 175.56511,143.80629 174.82469,145.09948 C 173.42394,147.54592 171.83642,147.77125 156.09266,147.77129 C 137.74373,147.77125 133.33822,148.85409 133.33822,153.37915 C 133.33821,153.7325 133.35606,154.04772 133.4263,154.31869 C 133.42621,154.32101 133.42535,154.34472 133.4263,154.34805 L 133.16206,154.34805 L 135.01177,200.15053 L 135.01177,200.6203 L 135.5109,200.6203 L 187.56718,200.6203 L 187.56718,199.62204 L 136.01003,199.62204 L 134.2484,155.22887 C 136.32441,156.13955 143.16895,155.96063 165.75228,155.34631 C 172.34468,155.16698 179.91368,154.98683 187.50846,154.84718 L 187.50846,150.4431 C 183.48392,150.32696 180.05101,149.46577 178.52413,147.88873 C 177.58116,146.91481 176.96889,146.27881 176.79185,145.80413 C 176.79212,145.80133 176.79178,145.77736 176.79185,145.77477 C 176.7801,145.72676 176.76873,145.66481 176.76249,145.62797 C 176.76255,145.62473 176.76236,145.57287 176.76249,145.56924 C 176.76191,145.55293 176.76207,145.50514 176.76249,145.48116 C 176.76273,145.47461 176.76242,145.43739 176.76249,145.42244 C 176.76244,145.41577 176.76272,145.39702 176.76249,145.39308 C 176.76251,145.38836 176.76219,145.36778 176.76249,145.36372 C 176.76226,145.36073 176.76253,145.33696 176.76249,145.33436 C 176.76224,145.33135 176.76254,145.3076 176.76249,145.305 C 176.76221,145.30196 176.76256,145.27824 176.76249,145.27564 C 176.79319,145.22536 176.87245,145.14364 176.90929,145.09948 C 176.91078,145.09764 176.90645,145.07271 176.90929,145.07012 C 176.91255,145.06731 176.93595,145.0726 176.93866,145.07012 C 176.94254,145.06678 176.95963,145.04853 176.96802,145.04075 C 176.96809,145.03795 176.9683,145.01479 176.96802,145.01139 C 177.25357,144.69558 177.82616,144.39763 178.64157,143.95441 C 179.45198,143.51387 179.99529,143.17362 180.2564,142.95615 C 180.27424,142.94061 180.32954,142.8825 180.34448,142.86807 C 180.34863,142.86429 180.37036,142.84196 180.37384,142.83871 C 180.37385,142.83526 180.37409,142.81374 180.37384,142.80935 C 180.37859,142.80954 180.42877,142.80939 180.43256,142.80935 C 180.43257,142.80688 180.43281,142.75358 180.43256,142.75063 C 180.43247,142.74761 180.43262,142.72371 180.43256,142.72127 C 180.43236,142.71984 180.4324,142.69801 180.43256,142.69191 C 180.43267,142.68946 180.43236,142.66562 180.43256,142.66255 C 180.42656,142.65138 180.37906,142.61418 180.37384,142.60383 C 180.37202,142.60388 180.35337,142.60388 180.34448,142.60383 C 180.3414,142.60407 180.28838,142.60377 180.28576,142.60383 C 180.28116,142.60398 180.26005,142.60382 180.2564,142.60383 C 180.25308,142.6 180.23042,142.57773 180.22704,142.57447 C 179.96907,142.51096 179.4725,142.46837 178.78837,142.45703 C 178.70769,142.45567 178.60684,142.42437 178.52413,142.42766 z M 56.589705,150.7367 C 56.605208,150.73669 56.632567,150.76577 56.648426,150.76606 C 56.778543,150.76001 56.927075,150.7675 57.059474,150.76606 C 59.619368,150.73814 62.188177,150.93338 64.722581,151.26519 C 62.492578,164.56176 60.550177,177.90014 59.907449,191.37172 C 55.363129,192.38059 50.221545,191.54555 45.579494,190.66707 C 44.78116,183.96552 50.967538,177.7033 47.752176,170.90741 C 43.676216,167.09249 44.908354,161.15847 45.8731,156.22713 C 46.014632,151.34266 51.816852,151.01065 55.708888,150.82479 C 55.897087,150.81724 56.107826,150.80071 56.2961,150.79543 C 56.39539,150.79263 56.467067,150.7743 56.560345,150.76606 C 56.564225,150.76572 56.585834,150.73685 56.589705,150.7367 z M 49.660613,152.55706 C 48.220132,153.09711 47.215465,153.87096 46.90072,155.34631 L 63.137111,155.34631 C 63.288874,154.41183 63.481076,153.49092 63.63624,152.55706 L 49.719334,152.55706 C 49.696249,152.56552 49.683481,152.54849 49.660613,152.55706 z M 46.783277,156.25649 C 46.775799,156.29629 46.767371,156.33553 46.753917,156.37393 C 46.582789,157.24863 46.408834,158.14184 46.254787,159.04574 L 62.5499,159.04574 C 62.695208,158.11582 62.840687,157.18571 62.990308,156.25649 L 46.783277,156.25649 z M 46.137345,159.95592 C 45.998209,160.88595 45.85398,161.8051 45.814379,162.71581 L 61.992049,162.71581 C 62.128235,161.80079 62.261847,160.87017 62.403097,159.95592 L 46.137345,159.95592 z M 156.94411,163.56727 L 156.94411,189.87433 L 187.56718,189.87433 L 187.56718,163.56727 L 156.94411,163.56727 z M 45.814379,163.62599 C 45.815253,163.73188 45.811354,163.84381 45.814379,163.94896 C 45.839032,164.80285 45.948113,165.63086 46.137345,166.41524 L 61.463559,166.41524 C 61.594465,165.48027 61.737509,164.56006 61.874607,163.62599 L 45.814379,163.62599 z M 46.40159,167.32542 C 46.768856,168.34706 47.332484,169.28077 48.163224,170.11468 L 60.964429,170.11468 C 61.085517,169.18253 61.217945,168.25658 61.346116,167.32542 L 46.40159,167.32542 z M 48.750435,170.99549 C 49.147794,171.93903 49.373753,172.86056 49.484449,173.78475 L 60.524021,173.78475 C 60.633665,172.86084 60.729488,171.91833 60.846987,170.99549 L 48.750435,170.99549 z M 49.51381,175.98679 C 49.448455,176.94457 49.269831,177.87793 49.044041,178.8054 L 59.96617,178.8054 C 60.061317,177.86546 60.125929,176.92551 60.230415,175.98679 L 49.51381,175.98679 z M 48.838517,179.71558 C 48.710477,180.16988 48.570401,180.62064 48.427469,181.06616 C 48.268781,181.5608 48.116914,182.04654 47.9577,182.53419 L 59.613843,182.53419 C 59.695235,181.5959 59.757123,180.65257 59.848728,179.71558 L 48.838517,179.71558 z M 47.634734,183.44437 C 47.333922,184.39066 47.082304,185.33729 46.871359,186.26298 L 59.290877,186.26298 C 59.357876,185.32045 59.476943,184.38551 59.555122,183.44437 L 47.634734,183.44437 z M 46.665835,187.17316 C 46.5012,188.10904 46.442451,189.03994 46.489672,189.96242 L 59.085353,189.96242 C 59.136116,189.02711 59.198868,188.10701 59.261517,187.17316 L 46.665835,187.17316 z "
         style="fill:#000000" />
      <use
         height="990"
         width="765"
         transform="matrix(-1,0,0,1,374.1469,2.346558e-7)"
         id="use4058"
         xlink:href="#path1365"
         y="0"
         x="0" />
    </g>
  </g>
</svg>
