<?xml version="1.0" encoding="UTF-8" standalone="no"?>
<!-- Created with Inkscape (http://www.inkscape.org/) -->
<svg
   xmlns:dc="http://purl.org/dc/elements/1.1/"
   xmlns:cc="http://web.resource.org/cc/"
   xmlns:rdf="http://www.w3.org/1999/02/22-rdf-syntax-ns#"
   xmlns:svg="http://www.w3.org/2000/svg"
   xmlns="http://www.w3.org/2000/svg"
   xmlns:xlink="http://www.w3.org/1999/xlink"
   xmlns:sodipodi="http://inkscape.sourceforge.net/DTD/sodipodi-0.dtd"
   xmlns:inkscape="http://www.inkscape.org/namespaces/inkscape"
   width="300pt"
   height="300pt"
   id="svg2"
   sodipodi:version="0.32"
   inkscape:version="0.43"
   sodipodi:docbase="S:\Groups\Security\STE\jaf\Stuff\Explorer"
   sodipodi:docname="sav_front.svg"
   version="1.0">
  <defs
     id="defs4">
    <linearGradient
       id="linearGradient9619">
      <stop
         style="stop-color:#bbbbbb;stop-opacity:1;"
         offset="0"
         id="stop9621" />
      <stop
         style="stop-color:#ffffff;stop-opacity:1;"
         offset="1"
         id="stop9623" />
    </linearGradient>
    <linearGradient
       inkscape:collect="always"
       id="linearGradient5196">
      <stop
         style="stop-color:#c9c9c9;stop-opacity:1;"
         offset="0"
         id="stop5198" />
      <stop
         style="stop-color:#c9c9c9;stop-opacity:0;"
         offset="1"
         id="stop5200" />
    </linearGradient>
    <linearGradient
       inkscape:collect="always"
       xlink:href="#linearGradient5196"
       id="linearGradient5202"
       x1="-776.40326"
       y1="619.61285"
       x2="-774.98901"
       y2="430.10822"
       gradientUnits="userSpaceOnUse" />
    <linearGradient
       inkscape:collect="always"
       xlink:href="#linearGradient9619"
       id="linearGradient9625"
       x1="-1027.219"
       y1="350.91223"
       x2="-490.02499"
       y2="295.75793"
       gradientUnits="userSpaceOnUse" />
    <linearGradient
       inkscape:collect="always"
       xlink:href="#linearGradient9619"
       id="linearGradient4073"
       gradientUnits="userSpaceOnUse"
       x1="-1027.219"
       y1="350.91223"
       x2="-490.02499"
       y2="295.75793" />
    <linearGradient
       inkscape:collect="always"
       xlink:href="#linearGradient5196"
       id="linearGradient4075"
       gradientUnits="userSpaceOnUse"
       x1="-776.40326"
       y1="619.61285"
       x2="-774.98901"
       y2="430.10822" />
    <linearGradient
       inkscape:collect="always"
       xlink:href="#linearGradient5196"
       id="linearGradient6733"
       gradientUnits="userSpaceOnUse"
       x1="-776.40326"
       y1="619.61285"
       x2="-774.98901"
       y2="430.10822"
       gradientTransform="matrix(0.467111,0,0,0.487697,583.26,486.2726)" />
    <linearGradient
       inkscape:collect="always"
       xlink:href="#linearGradient9619"
       id="linearGradient6736"
       gradientUnits="userSpaceOnUse"
       x1="-1027.219"
       y1="350.91223"
       x2="-490.02499"
       y2="295.75793"
       gradientTransform="matrix(0.467111,0,0,0.487697,583.26,486.2726)" />
    <linearGradient
       inkscape:collect="always"
       xlink:href="#linearGradient9619"
       id="linearGradient7649"
       gradientUnits="userSpaceOnUse"
       gradientTransform="matrix(0.467111,0,0,0.487697,583.26,486.2726)"
       x1="-1027.219"
       y1="350.91223"
       x2="-490.02499"
       y2="295.75793" />
    <linearGradient
       inkscape:collect="always"
       xlink:href="#linearGradient5196"
       id="linearGradient7651"
       gradientUnits="userSpaceOnUse"
       gradientTransform="matrix(0.467111,0,0,0.487697,583.26,486.2726)"
       x1="-776.40326"
       y1="619.61285"
       x2="-774.98901"
       y2="430.10822" />
    <linearGradient
       inkscape:collect="always"
       xlink:href="#linearGradient5196"
       id="linearGradient1360"
       gradientUnits="userSpaceOnUse"
       gradientTransform="matrix(0.441304,0,0,0.460753,553.6492,508.81)"
       x1="-776.40326"
       y1="619.61285"
       x2="-774.98901"
       y2="430.10822" />
    <linearGradient
       inkscape:collect="always"
       xlink:href="#linearGradient9619"
       id="linearGradient1363"
       gradientUnits="userSpaceOnUse"
       gradientTransform="matrix(0.441304,0,0,0.460753,553.6492,508.81)"
       x1="-1027.219"
       y1="350.91223"
       x2="-490.02499"
       y2="295.75793" />
  </defs>
  <sodipodi:namedview
     id="base"
     pagecolor="#ffffff"
     bordercolor="#666666"
     borderopacity="1.0"
     inkscape:pageopacity="0.0"
     inkscape:pageshadow="2"
     inkscape:zoom="1.172198"
     inkscape:cx="302.81828"
     inkscape:cy="62.537912"
     inkscape:document-units="px"
     inkscape:current-layer="layer1"
     inkscape:window-width="1280"
     inkscape:window-height="977"
     inkscape:window-x="-4"
     inkscape:window-y="-4"
     showguides="true"
     inkscape:guide-bbox="true" />
  <metadata
     id="metadata7">
    <rdf:RDF>
      <cc:Work
         rdf:about="">
        <dc:format>image/svg+xml</dc:format>
        <dc:type
           rdf:resource="http://purl.org/dc/dcmitype/StillImage" />
      </cc:Work>
    </rdf:RDF>
  </metadata>
  <g
     inkscape:label="Layer 1"
     inkscape:groupmode="layer"
     id="layer1">
    <g
       id="g1397"
       transform="translate(0.3016,-3.051758e-5)">
      <path
         id="path2320"
         d="M 120.28596,50.00013 C 120.28443,50.0002 116.66648,50.05766 116.65457,50.05918 C 115.1412,50.25203 114.63987,55.44047 113.34793,57.4991 C 105.79348,58.62504 99.55125,59.27827 93.77385,60.92383 C 91.13993,61.67401 83.81526,69.6884 79.18924,78.6084 C 76.68652,83.43419 70.776417,95.93795 66.08081,106.39001 C 59.309972,121.46142 56.965399,125.502 54.714263,125.846 C 53.922386,125.96702 53.331627,125.97113 52.913329,125.78695 C 52.844617,125.75506 52.766574,125.71192 52.706665,125.66886 C 52.645801,125.62265 52.581884,125.55192 52.529523,125.49172 C 51.983676,124.8456 51.860677,123.38728 51.850483,120.41368 C 51.818625,111.01402 51.204337,110.60758 38.033485,111.70425 C 31.974125,112.20877 26.30208,113.31293 25.072668,114.18422 C 25.06139,114.19179 25.025471,114.20658 25.013621,114.21374 C 25.010031,114.21618 24.987363,114.24077 24.984098,114.24327 C 24.97686,114.2507 24.959605,114.26757 24.954574,114.27279 C 24.955002,114.27604 24.954471,114.29965 24.954574,114.30231 C 24.096546,115.24994 23.212465,120.38966 23.006024,125.78695 C 22.556775,137.54098 23.136617,138.16242 34.343048,138.42301 C 38.633407,138.52275 43.648482,138.98473 45.502931,139.45634 L 48.86861,140.34204 L 46.920058,147.63434 C 45.655278,152.34658 43.375139,156.60233 40.483936,159.62089 C 36.004608,164.29767 35.990888,164.3033 35.583035,178.78164 C 35.415869,184.71557 35.371296,187.82666 35.494464,188.2882 C 35.499842,188.29345 35.518609,188.31253 35.523988,188.31773 C 35.523908,188.32043 35.524294,188.34387 35.523988,188.34725 C 35.527254,188.34719 35.552981,188.34716 35.553511,188.34725 C 35.555145,188.34566 35.581755,188.31903 35.583035,188.31773 C 35.583014,188.315 35.583206,188.29173 35.583035,188.2882 C 35.68533,188.01422 35.848528,186.86619 36.055411,184.893 C 36.118999,184.28729 36.220845,183.88001 36.321122,183.68254 C 36.321015,183.67993 36.321543,183.65596 36.321122,183.65301 C 36.320992,183.6479 36.321387,183.62856 36.321122,183.62349 C 36.322801,183.62363 36.349366,183.62344 36.350646,183.62349 C 36.352766,183.62102 36.378094,183.59629 36.380169,183.59397 C 36.383326,183.59057 36.406939,183.56719 36.409693,183.56444 C 36.41243,183.56447 36.435691,183.56426 36.439216,183.56444 C 36.440452,183.56448 36.468122,183.56454 36.46874,183.56444 C 36.469976,183.56444 36.497689,183.56432 36.498263,183.56444 C 36.501364,183.56782 36.525166,183.59127 36.527787,183.59397 C 36.529067,183.59397 36.55581,183.59405 36.55731,183.59397 C 36.559915,183.59678 36.585157,183.62185 36.586834,183.62349 C 37.464811,184.6581 39.003032,194.21508 39.982036,203.90614 C 41.897651,222.86804 41.914495,222.94432 48.691468,221.97452 C 51.921116,221.51234 53.582606,221.6037 54.419027,222.35832 C 54.452164,222.38937 54.506556,222.44314 54.537121,222.47642 C 54.709269,222.67093 54.851099,222.91467 54.950451,223.18498 C 55.544226,224.80054 59.027956,225.16304 73.255021,225.16306 C 89.47098,225.16303 90.89349,225.37029 92.17958,227.87922 C 92.44612,228.39919 92.65487,228.83881 92.65196,229.17825 C 92.65163,229.18834 92.65201,229.22199 92.65196,229.2373 C 92.646,229.27001 92.62947,229.32818 92.62244,229.35539 C 92.61528,229.38002 92.60309,229.42031 92.59291,229.44396 C 92.58743,229.45567 92.56965,229.49154 92.56339,229.50301 C 92.55006,229.52572 92.52552,229.56557 92.50434,229.59158 C 92.49891,229.59796 92.48025,229.61498 92.47482,229.6211 C 92.46953,229.62684 92.45031,229.64541 92.4453,229.65063 C 92.44006,229.65579 92.42123,229.67505 92.41577,229.68015 C 92.41009,229.6852 92.39215,229.70469 92.38625,229.70967 C 92.34943,229.73928 92.28396,229.77058 92.23863,229.79824 C 90.9284,230.56388 86.15026,230.59538 72.753121,230.59538 C 51.982313,230.59537 51.938197,230.58608 49.813361,227.20018 C 48.51425,225.13014 46.444974,223.80497 44.528655,223.80497 C 43.335006,223.80497 42.466875,223.70046 41.78297,223.09641 C 40.269447,221.72243 39.633195,217.84621 38.24015,207.1242 L 36.616357,194.63576 L 36.586834,205.5004 C 36.576109,211.47304 35.928836,221.83907 35.140182,228.55826 C 34.392039,234.93207 34.356159,268.0879 34.844947,287.84145 C 35.333736,307.59502 37.59176,317.90902 40.306795,320.22873 C 49.186182,327.81528 88.03957,324.50367 91.14626,322.76775 C 95.61414,320.27122 96.71522,315.67805 97.37572,297.11182 C 97.92443,281.6877 98.36187,278.86497 100.00331,279.33868 C 101.21257,279.49499 144.78778,279.68075 187.51097,279.81105 L 187.51097,266.99785 C 125.39054,267.82062 63.896158,267.72524 58.699935,264.19312 C 47.24042,256.40355 41.222023,227.05256 41.222023,227.05256 L 46.211495,228.46969 L 51.200966,234.40391 L 96.13573,234.55153 L 101.7452,245.06189 C 120.08115,246.93312 154.04159,247.57507 187.51097,247.30568 L 187.51097,243.40858 C 147.77888,243.42709 107.14983,242.85862 104.6385,240.48575 C 104.62407,240.47212 104.59466,240.44354 104.57945,240.42671 C 102.6074,238.09768 94.5204,210.58507 93.24243,209.75179 C 92.09567,209.00406 91.38014,208.38178 91.14626,207.89181 C 91.13911,207.87587 91.12285,207.84844 91.11674,207.83276 C 91.11139,207.8225 91.09237,207.78393 91.08721,207.77371 C 91.079,207.74488 91.06385,207.68758 91.05769,207.65562 C 91.05766,207.6453 91.05753,207.60684 91.05769,207.59657 C 91.05756,207.5904 91.05763,207.57317 91.05769,207.56705 C 91.05808,207.55793 91.05763,207.52344 91.05769,207.508 C 91.05765,207.50541 91.0578,207.48143 91.05769,207.47848 C 91.06295,207.46812 91.08176,207.42976 91.08721,207.41943 C 91.08714,207.41684 91.08745,207.39288 91.08721,207.38991 C 91.09258,207.38472 91.11132,207.36556 91.11674,207.36038 C 91.12144,207.34682 91.14158,207.31763 91.14626,207.30134 C 91.14756,207.29755 91.14479,207.27514 91.14626,207.27181 C 91.15154,207.2666 91.17046,207.24749 91.17579,207.24229 C 91.18104,207.23708 91.20001,207.21797 91.20531,207.21277 C 91.23605,207.17676 91.28285,207.12857 91.3234,207.09467 C 91.32986,207.0895 91.34623,207.07028 91.35293,207.06515 C 91.37372,207.0499 91.41859,207.02094 91.4415,207.0061 C 92.40193,206.40852 95.12931,206.14992 99.82617,206.14992 L 108.77179,206.14992 L 110.18892,212.05462 C 111.98062,219.48374 116.80027,224.58445 123.06117,225.66495 C 125.73792,226.12693 154.56229,226.3912 187.09764,226.25542 L 187.51097,226.25542 L 187.51097,225.31067 L 183.791,225.25163 C 126.52908,224.55837 121.02456,224.27631 117.74694,222.03356 C 115.7805,220.68804 113.55684,217.96576 112.81651,215.95172 C 110.08666,208.52514 98.35971,149.60926 99.29475,148.0772 C 99.29617,148.07565 99.32301,148.04897 99.32427,148.04767 C 99.93216,147.81715 104.56437,147.50366 109.92321,147.36863 L 120.13834,147.10292 L 121.79165,153.89333 L 121.55547,153.42095 L 122.05737,155.10379 L 122.08689,155.19236 C 122.59749,157.26162 123.17261,159.11408 123.68116,160.47707 C 123.68107,160.47968 123.68145,160.50353 123.68116,160.50659 C 123.68368,160.509 123.70831,160.53358 123.71068,160.53611 L 125.57066,166.76557 L 125.57066,166.82462 C 126.7573,171.56271 129.14188,179.98196 131.50489,181.70446 C 133.61955,183.24593 160.7136,183.90037 187.51097,183.83016 L 187.51097,180.16924 C 167.56225,180.21041 133.94841,179.68245 131.53441,178.07307 C 131.50283,178.05202 131.45453,178.0173 131.41632,177.9845 C 131.41016,177.97899 131.39262,177.96047 131.38679,177.95498 C 131.37975,177.94808 131.3644,177.93268 131.35727,177.92546 C 130.90937,177.45668 130.26875,176.33747 129.58586,174.94358 C 129.58062,174.93865 129.56158,174.919 129.55634,174.91406 L 125.21638,161.45134 C 125.21646,161.44978 125.21637,161.42312 125.21638,161.42182 C 125.21368,161.41919 125.19024,161.39536 125.18686,161.3923 C 125.10435,160.79882 124.94515,160.0622 124.65543,159.2666 C 123.72931,156.72339 123.22691,151.49649 123.59259,150.64574 C 123.59599,150.64267 123.61938,150.61884 123.62211,150.61622 C 123.62573,150.61233 123.64568,150.59259 123.65164,150.58669 C 123.65156,150.58398 123.65192,150.56058 123.65164,150.55717 C 123.65477,150.55747 123.67842,150.55714 123.68116,150.55717 C 123.68257,150.55725 123.70946,150.55713 123.71068,150.55717 C 123.71548,150.55697 123.73535,150.5571 123.74021,150.55717 C 123.74457,150.55924 124.88572,151.43699 124.89162,151.44288 C 126.90241,153.21159 156.13495,152.53357 187.51097,152.26953 L 187.51097,144.41628 C 154.22051,144.50489 117.2491,145.06875 107.35466,145.89246 C 102.50114,146.29649 100.26003,146.38785 99.35379,145.92198 C 99.32933,145.90696 99.28447,145.87493 99.26522,145.86293 C 99.25492,145.85804 99.21629,145.8384 99.20618,145.83341 C 99.1621,145.80003 99.10073,145.75377 99.05856,145.71532 C 99.05539,145.71208 99.03199,145.68905 99.02904,145.68579 C 99.00828,145.65985 98.98732,145.62543 98.96999,145.59722 C 98.77667,145.26481 98.79754,144.77152 98.91094,144.15057 C 99.30272,142.00522 101.2293,141.57842 113.64317,140.84394 C 121.33318,140.38896 154.27452,139.88148 187.51097,139.72205 L 187.51097,135.85447 C 122.63974,135.87224 53.533322,143.73724 53.533322,143.73724 L 54.18284,139.81062 C 54.182881,139.81063 75.585384,125.86889 185.76908,125.63934 C 186.34973,125.63813 186.92517,125.63927 187.51097,125.63934 L 187.51097,124.19269 C 160.89808,124.2149 130.49327,124.82642 120.13834,125.93457 C 97.74157,128.33142 89.51469,129.03053 88.40058,128.59169 C 88.38429,128.58412 88.3532,128.56895 88.34153,128.56216 C 88.34146,128.55932 88.34128,128.53608 88.34153,128.53264 C 88.33796,128.52896 88.3177,128.50873 88.31201,128.50312 C 88.30931,128.50319 88.28586,128.5028 88.28248,128.50312 C 88.28258,128.50164 88.28244,128.47486 88.28248,128.47359 C 88.28231,128.46604 88.28236,128.44822 88.28248,128.44407 C 88.28237,128.44268 88.28251,128.41584 88.28248,128.41455 C 88.28585,128.41487 88.30931,128.41447 88.31201,128.41455 C 88.31197,128.41323 88.3121,128.38659 88.31201,128.38502 C 88.31324,128.38382 88.34036,128.35672 88.34153,128.3555 C 88.34618,128.35038 88.36608,128.33094 88.37105,128.32598 C 88.37414,128.32628 88.39794,128.3259 88.40058,128.32598 C 88.40335,128.32276 88.4275,128.29911 88.4301,128.29645 C 88.43272,128.29694 88.45707,128.29634 88.45962,128.29645 C 89.71376,127.78023 98.08342,126.48751 107.82704,125.3441 C 120.97865,123.8008 144.02184,122.91707 184.49957,122.39175 C 185.44595,122.37946 186.40873,122.37217 187.39287,122.36223 C 187.43303,122.3618 187.47018,122.36217 187.51097,122.36223 L 187.51097,120.59082 C 144.92406,120.84046 102.56085,123.71907 61.238956,128.82787 C 68.651276,107.74118 79.73866,82.52661 92.23863,66.4152 C 105.34895,60.3232 146.40361,57.41153 187.51097,57.44005 L 187.51097,53.63152 C 166.63429,53.41013 126.92801,55.84747 121.55547,56.34768 C 121.55207,56.34799 121.53164,56.34781 121.52594,56.34768 C 121.51275,56.34826 121.47969,56.34779 121.4669,56.34768 C 121.46375,56.34757 121.44319,56.34761 121.43737,56.34768 C 121.42701,56.34785 121.38859,56.34767 121.37833,56.34768 C 121.37574,56.34773 121.35177,56.34754 121.3488,56.34768 C 121.33838,56.34241 121.30009,56.32358 121.28976,56.31816 C 121.28715,56.31823 121.26325,56.31792 121.26023,56.31816 C 121.25501,56.31278 121.23591,56.29405 121.23071,56.28864 C 121.22809,56.28872 121.20425,56.28832 121.20118,56.28864 C 121.19594,56.2833 121.17689,56.26449 121.17166,56.25911 C 121.16134,56.25434 121.12274,56.23468 121.11261,56.22959 C 120.1767,55.45181 121.14222,51.37829 120.64024,50.26584 C 120.62283,50.23069 120.60202,50.17612 120.58119,50.14775 C 120.57576,50.1411 120.55733,50.12443 120.55167,50.11822 C 120.55179,50.11556 120.55122,50.09195 120.55167,50.0887 C 120.54669,50.08349 120.52725,50.06424 120.52214,50.05918 C 120.51898,50.05953 120.49526,50.05908 120.49262,50.05918 C 120.48736,50.05377 120.46837,50.03501 120.4631,50.02965 C 120.46013,50.03003 120.43634,50.02965 120.43357,50.02965 C 120.42834,50.02427 120.40929,50.0055 120.40405,50.00013 C 120.3993,50.00023 120.37932,49.99998 120.37453,50.00013 C 120.37175,50.00009 120.34789,49.99987 120.345,50.00013 C 120.33728,50.00029 120.3208,50.00028 120.31548,50.00013 C 120.3101,50.00011 120.29306,50.00007 120.28596,50.00013 z M 38.387767,112.44233 C 38.481747,112.43691 38.559625,112.44718 38.653479,112.44233 C 38.659392,112.44202 38.677197,112.44245 38.683002,112.44233 C 38.70591,112.44246 38.748675,112.44216 38.771573,112.44233 C 38.777373,112.44224 38.795188,112.44262 38.801096,112.44233 C 38.807048,112.44204 38.824802,112.44244 38.83062,112.44233 C 38.864953,112.44251 38.913034,112.44396 38.948714,112.44233 C 38.983713,112.44174 39.031833,112.44283 39.066808,112.44233 C 39.072843,112.44208 39.090219,112.44243 39.096331,112.44233 C 39.133332,112.44248 39.17825,112.44376 39.214425,112.44233 C 39.263011,112.44041 39.313499,112.44409 39.362043,112.44233 C 39.410982,112.44055 39.460808,112.44395 39.50966,112.44233 C 39.558909,112.4407 39.608116,112.4438 39.657278,112.44233 C 39.706836,112.44084 39.784948,112.44365 39.834418,112.44233 C 39.884288,112.441 39.9323,112.44349 39.982036,112.44233 C 40.083141,112.43997 40.176743,112.44399 40.277271,112.44233 C 40.485123,112.4389 40.691617,112.44274 40.897265,112.44233 C 44.525973,112.43509 47.760631,112.89288 49.311462,114.0366 C 52.588673,116.45351 48.130522,136.09066 48.130522,136.09066 L 25.722186,134.96876 C 25.722185,134.96874 24.315678,118.3361 25.161239,116.0442 C 25.176503,116.00973 25.207102,115.95006 25.220286,115.92611 C 25.22016,115.9235 25.220771,115.89951 25.220286,115.89658 C 26.320426,114.24788 32.467038,112.78382 38.387767,112.44233 z M 96.46049,141.6706 L 104.72707,187.55012 L 107.88609,204.34899 L 91.97292,204.28994 L 88.54819,206.53373 L 54.979974,206.71087 L 54.27141,219.11074 L 43.761044,219.16979 L 41.487735,201.78044 L 37.502062,179.84448 L 37.502062,166.11606 L 45.561977,155.95997 L 48.95718,143.5601 L 44.676272,187.19583 L 98.46809,187.55012 L 91.02817,144.82961 L 53.739987,147.16197 L 53.326658,145.33151 L 90.99864,141.93631 L 96.46049,141.6706 z M 84.0311,146.33531 C 84.07222,146.32994 84.10924,146.33781 84.14919,146.33531 C 84.15579,146.33506 84.17219,146.33536 84.17872,146.33531 C 87.25947,146.31266 89.4566,146.43091 89.96532,146.66007 C 89.97605,146.66506 90.01462,146.68452 90.02437,146.68959 C 90.02656,146.69187 90.05198,146.7168 90.05389,146.71912 C 90.05383,146.72063 90.05393,146.74736 90.05389,146.74864 L 95.39765,176.74452 C 95.25958,176.6995 94.89652,176.51796 94.57099,176.50833 C 94.55746,176.50826 94.52538,176.50769 94.51194,176.50833 C 94.50169,176.50815 94.46312,176.50832 94.45289,176.50833 C 94.44261,176.50805 94.40408,176.50838 94.39385,176.50833 C 94.38355,176.5135 94.34504,176.53245 94.3348,176.53785 C 94.31981,176.54493 94.28938,176.56014 94.27575,176.56737 C 94.27313,176.56729 94.24934,176.56768 94.24623,176.56737 C 94.23603,176.57758 94.1972,176.61594 94.18718,176.62642 C 94.12899,176.6763 94.0605,176.74809 94.01004,176.83309 C 94.00469,176.83822 93.98582,176.85745 93.98052,176.86261 C 93.9712,176.88568 93.95957,176.9284 93.95099,176.95118 C 91.74321,183.06561 84.42421,185.76032 78.68734,179.57877 L 50.521926,179.01783 C 50.521924,179.01783 52.139692,150.79984 52.618094,148.75624 C 52.619942,148.74901 52.616281,148.73313 52.618094,148.72671 C 52.618041,148.72406 52.618315,148.70023 52.618094,148.69719 C 52.621489,148.69412 52.644888,148.67028 52.647618,148.66767 C 52.654065,148.66117 52.675147,148.63991 52.677141,148.63814 C 52.689041,148.63207 52.723667,148.61496 52.736188,148.60862 C 52.755076,148.59619 52.803378,148.56205 52.824759,148.54957 C 54.899932,147.66844 71.55719,146.57905 81.87588,146.36483 C 81.9608,146.36307 82.02805,146.36647 82.11207,146.36483 C 82.19685,146.36318 82.29403,146.36636 82.37778,146.36483 C 82.46234,146.36328 82.53052,146.36625 82.61397,146.36483 C 82.69831,146.36341 82.76702,146.36613 82.85016,146.36483 C 83.01935,146.36219 83.18732,146.36694 83.35206,146.36483 C 83.52174,146.36267 83.68922,146.36643 83.85396,146.36483 C 83.86061,146.36477 83.87677,146.3651 83.88348,146.36483 C 83.92399,146.36225 83.98997,146.34068 84.0311,146.33531 z M 73.786444,147.28006 C 73.781257,147.2855 73.762126,147.30414 73.75692,147.30959 C 73.750382,147.30954 73.729144,147.30955 73.727396,147.30959 C 73.170475,147.32247 72.584624,147.359 71.98551,147.39816 C 58.787738,148.26094 53.799034,153.53973 53.799034,162.54371 C 53.799076,175.9248 60.413898,179.07687 71.808369,179.07687 C 74.069482,179.07688 76.54437,178.42065 78.15592,178.07307 C 75.98621,170.11568 78.80634,164.2616 88.34153,166.58843 C 88.72433,165.81929 89.06378,164.93713 88.81391,162.7799 C 87.87331,152.38674 85.14583,147.18988 74.25882,147.28006 C 74.17245,147.28081 74.080403,147.27716 73.993108,147.28006 C 73.976735,147.28064 73.951397,147.28005 73.934061,147.28006 C 73.920778,147.28029 73.888165,147.27964 73.875014,147.28006 C 73.870026,147.28019 73.851093,147.2803 73.845491,147.28006 C 73.843771,147.28008 73.817554,147.27999 73.815967,147.28006 C 73.81335,147.28 73.789438,147.28022 73.786444,147.28006 z M 73.66835,148.04767 C 73.767889,148.04312 73.864688,148.05204 73.963585,148.04767 C 73.965077,148.04742 73.986447,148.04753 73.993108,148.04767 C 73.996103,148.04783 74.020015,148.04761 74.022632,148.04767 C 74.02506,148.04783 74.049774,148.04761 74.052155,148.04767 C 74.057757,148.04791 74.07669,148.04778 74.081679,148.04767 C 74.094829,148.04725 74.12749,148.04787 74.140726,148.04767 C 74.143503,148.0477 74.168841,148.04771 74.170249,148.04767 C 74.187595,148.04765 74.212971,148.04821 74.229296,148.04767 C 74.316364,148.04481 74.37749,148.04866 74.465484,148.04767 C 76.1672,148.02864 77.8874,148.11781 79.54353,148.54957 C 84.92355,149.30263 87.89464,155.94558 87.98725,161.68753 C 88.17739,163.3896 88.31873,164.38482 88.25296,164.90559 C 88.24633,164.95146 88.23761,165.01042 88.22344,165.05321 C 88.21781,165.06945 88.19879,165.09838 88.19391,165.11226 C 88.18686,165.13422 88.17275,165.18104 88.16439,165.20083 C 88.16122,165.20366 88.13763,165.22763 88.13486,165.23035 C 88.1301,165.24084 88.11044,165.2792 88.10534,165.2894 C 88.09512,165.29445 88.05681,165.31417 88.04629,165.31892 C 88.04133,165.32416 88.02183,165.34334 88.01677,165.34844 C 88.0016,165.35633 87.96826,165.37315 87.95772,165.37797 C 87.95463,165.37773 87.93083,165.37803 87.9282,165.37797 C 87.92469,165.382 87.90212,165.4029 87.89868,165.40749 C 87.86645,165.41575 87.81765,165.43286 87.78058,165.43702 C 87.2156,165.48421 86.09412,165.11239 84.11967,165.02369 C 81.28465,164.55929 78.91871,166.43757 77.6245,169.09793 L 71.39504,162.92752 L 80.57685,164.25608 L 72.310269,161.62848 L 80.31114,157.81995 L 71.247422,160.83135 L 77.56545,153.42095 L 70.479812,159.85707 L 72.57598,151.05907 L 69.771248,158.70566 L 67.409368,149.76004 L 67.999837,159.29613 L 62.715131,153.06667 L 67.025562,160.3885 L 59.349452,156.57997 L 67.202703,161.74658 L 58.109465,162.18943 L 67.320797,162.15991 C 67.31131,162.06391 67.320797,161.96378 67.320797,161.86467 C 67.320796,160.5294 68.202673,159.44374 69.298872,159.44374 C 70.395072,159.44374 71.276946,160.52941 71.276946,161.86467 C 71.27695,163.19992 70.395071,164.2856 69.298872,164.2856 C 68.314015,164.28556 67.506366,163.39451 67.350321,162.24848 L 59.556117,167.85794 L 67.763649,164.10846 L 63.71893,172.43408 L 68.767449,164.63988 L 69.180778,173.70359 L 69.505536,165.02369 L 73.609302,173.02455 L 70.981711,164.01989 L 77.59498,169.12745 C 76.38191,171.63979 76.14864,174.85724 77.32926,177.42356 C 72.060575,177.90067 66.454201,178.67806 61.445621,176.27214 C 54.549052,173.15486 52.913798,162.55199 56.101867,155.57617 C 59.895426,149.05105 67.397625,148.33443 73.66835,148.04767 z M 104.49088,150.94098 C 104.48555,150.94362 104.4664,150.96765 104.46136,150.9705 C 104.44696,150.97918 104.41532,150.9939 104.40231,151.00002 C 104.39547,151 104.37411,151.00011 104.37279,151.00002 C 104.36969,151.0034 104.34591,151.02685 104.34327,151.02955 C 104.34204,151.02952 104.31514,151.02966 104.31374,151.02955 C 104.30981,151.0333 104.28901,151.05421 104.28422,151.05907 C 104.2792,151.06434 104.25993,151.08353 104.2547,151.08859 C 104.25484,151.08999 104.25465,151.1168 104.2547,151.11812 C 104.25484,151.1241 104.25492,151.14462 104.2547,151.14764 C 104.18643,152.88316 109.92133,181.56089 110.77939,182.73779 C 110.78206,182.73774 110.80562,182.73821 110.80891,182.73779 C 110.82067,182.75059 110.85494,182.78572 110.86796,182.79683 C 110.87312,182.80215 110.89226,182.82106 110.89748,182.82636 C 110.91276,182.83406 110.94695,182.8508 110.95653,182.85588 C 112.5866,183.67569 121.47618,182.8201 123.00212,181.52732 C 123.00185,181.52389 123.00211,181.5006 123.00212,181.4978 C 123.00752,181.48791 123.02648,181.44949 123.03164,181.43875 C 123.42181,179.4968 116.03457,151.17716 116.03457,151.17716 C 116.03456,151.17714 109.03557,150.93129 105.84896,150.94098 C 105.61993,150.94165 105.41629,150.9369 105.22897,150.94098 C 105.16136,150.94242 105.08402,150.94 105.02231,150.94098 C 104.98471,150.94238 104.93929,150.93912 104.90421,150.94098 C 104.88887,150.94177 104.85843,150.94143 104.84517,150.94098 C 104.83952,150.94092 104.81922,150.94072 104.81564,150.94098 C 104.80405,150.94079 104.76782,150.94105 104.7566,150.94098 C 104.7553,150.94107 104.72989,150.94101 104.72707,150.94098 C 104.71785,150.94078 104.70649,150.94106 104.69755,150.94098 C 104.68736,150.9413 104.65378,150.94099 104.6385,150.94098 C 104.63291,150.941 104.61155,150.94119 104.60898,150.94098 C 104.60749,150.94124 104.58111,150.94089 104.57945,150.94098 C 104.57572,150.94068 104.55341,150.94102 104.54993,150.94098 C 104.5474,150.94088 104.52306,150.94124 104.52041,150.94098 C 104.51748,150.942 104.49372,150.93983 104.49088,150.94098 z M 125.364,153.8638 C 125.364,153.86379 126.03019,156.94992 126.22018,157.64281 C 127.55643,162.51607 129.4107,160.75522 171.50923,160.91992 C 174.27032,160.93074 174.076,156.37138 187.51097,155.90092 L 187.51097,154.63141 C 166.79725,154.38185 128.85143,155.76065 125.364,153.8638 z M 185.53289,157.58376 C 179.94528,157.94777 175.35153,159.66963 175.37681,162.278 C 175.40192,164.8707 180.66854,166.87452 187.51097,166.91319 L 187.51097,163.45894 C 186.70541,163.30414 186.06828,163.08005 185.71003,162.80942 C 185.62701,162.74426 185.52764,162.64444 185.47384,162.57324 C 185.46866,162.56295 185.44924,162.5245 185.44432,162.51419 C 185.43399,162.48977 185.42197,162.44961 185.4148,162.42562 C 185.40941,162.42039 185.39065,162.40132 185.38527,162.39609 C 185.38508,162.39298 185.38525,162.37029 185.38527,162.36657 C 185.38591,162.35375 185.38558,162.31792 185.38527,162.30752 C 185.38485,162.29691 185.38502,162.25902 185.38527,162.24848 C 185.38521,162.24348 185.38526,162.22391 185.38527,162.21895 C 185.38529,162.21618 185.38554,162.19229 185.38527,162.18943 C 185.38518,162.18797 185.38529,162.16118 185.38527,162.15991 C 185.39933,162.12642 185.42873,162.07134 185.44432,162.04181 C 185.49935,161.93755 185.53959,161.84589 185.56241,161.7761 C 185.56514,161.7735 185.58846,161.74953 185.59194,161.74658 C 185.59194,161.73602 185.59219,161.69781 185.59194,161.68753 C 185.59201,161.68467 185.59218,161.66145 185.59194,161.65801 C 185.59212,161.65449 185.59191,161.63122 185.59194,161.62848 C 185.58816,161.62453 185.56318,161.59995 185.56241,161.59896 C 185.55942,161.59907 185.53385,161.5991 185.53289,161.59896 C 185.53072,161.59902 185.50562,161.59882 185.50337,161.59896 C 185.50195,161.59893 185.47506,161.59897 185.47384,161.59896 C 185.46373,161.59847 185.42527,161.59902 185.4148,161.59896 C 185.40101,161.60505 185.37092,161.62069 185.35575,161.62848 C 185.14954,161.74074 184.80775,162.01161 184.411,162.39609 C 182.27368,164.46733 179.27391,164.6251 179.27391,162.66181 C 179.27389,162.52284 179.32114,162.38512 179.36248,162.278 C 179.37308,162.25199 179.38118,162.21301 179.392,162.18943 C 179.40315,162.16625 179.40898,162.12631 179.42153,162.10086 C 179.42412,162.09604 179.44837,162.07577 179.45105,162.07134 C 179.48144,162.03029 179.53148,161.98381 179.56914,161.95324 C 179.56912,161.9505 179.5693,161.92723 179.56914,161.92372 C 179.57989,161.91841 179.61846,161.899 179.62819,161.8942 C 179.63864,161.889 179.67673,161.86977 179.68724,161.86467 C 179.68994,161.86468 179.7139,161.8644 179.71676,161.86467 C 179.75772,161.853 179.82358,161.84052 179.86438,161.83515 C 179.87969,161.83508 179.91345,161.83542 179.92343,161.83515 C 179.93688,161.83515 179.96873,161.83443 179.98247,161.83515 C 179.98577,161.83518 180.0082,161.83524 180.012,161.83515 C 180.02464,161.83469 180.06096,161.8346 180.07104,161.83515 C 180.07736,161.83626 180.09362,161.83338 180.10057,161.83515 C 180.14495,161.84875 180.20805,161.88055 180.24818,161.8942 C 180.25396,161.89628 180.27016,161.89182 180.27771,161.8942 C 180.29401,161.89927 180.32497,161.91866 180.33676,161.92372 C 180.4079,161.95578 180.49839,161.99371 180.57294,162.04181 C 180.67358,162.10675 180.78275,162.16369 180.86818,162.18943 C 180.87409,162.19105 180.892,162.18803 180.8977,162.18943 C 180.90947,162.19311 180.94572,162.21417 180.95675,162.21895 C 180.96028,162.22011 180.9828,162.21823 180.98627,162.21895 C 180.99635,162.21912 181.0309,162.21913 181.04532,162.21895 C 181.0489,162.21883 181.06738,162.21887 181.07484,162.21895 C 181.0766,162.21893 181.10283,162.2191 181.10437,162.21895 C 181.10961,162.21359 181.12866,162.19482 181.13389,162.18943 C 181.1367,162.18943 181.16024,162.18915 181.16341,162.18943 C 181.16311,162.18607 181.16349,162.1626 181.16341,162.15991 C 181.16589,162.15749 181.19048,162.13291 181.19294,162.13038 C 181.19419,162.12914 181.22098,162.10234 181.22246,162.10086 C 181.22234,162.09944 181.22248,162.07268 181.22246,162.07134 C 181.22778,162.06611 181.24657,162.04692 181.25198,162.04181 C 181.25493,162.03938 181.27887,162.01484 181.28151,162.01229 C 181.28148,162.01099 181.28163,161.98426 181.28151,161.98277 C 181.34401,161.71115 181.2344,161.21124 180.98627,160.53611 C 180.69393,159.74073 180.59632,159.2104 180.72056,158.94184 C 180.72571,158.93122 180.74502,158.8929 180.75008,158.8828 C 180.75482,158.87782 180.77473,158.85812 180.77961,158.85327 C 180.7829,158.85368 180.80646,158.85316 180.80913,158.85327 C 180.81221,158.85007 180.83601,158.82641 180.83865,158.82375 C 180.84135,158.82101 180.86503,158.79753 180.86818,158.79423 C 180.87083,158.79427 180.8948,158.79381 180.8977,158.79423 C 180.90294,158.78883 180.92197,158.77007 180.92723,158.7647 C 180.92987,158.76471 180.9539,158.76443 180.95675,158.7647 C 180.95965,158.76497 180.98348,158.76474 180.98627,158.7647 C 180.98625,158.76193 180.98665,158.73875 180.98627,158.73518 C 180.98751,158.73515 181.01435,158.73512 181.0158,158.73518 C 181.01848,158.73531 181.04279,158.73513 181.04532,158.73518 C 181.06912,158.73322 181.1074,158.73517 181.13389,158.73518 C 181.3892,158.7414 181.77073,158.8302 182.19674,159.00089 C 183.2179,159.41004 186.03842,159.43463 186.89097,159.08946 C 186.90654,159.08178 186.94034,159.06465 186.95002,159.05994 C 186.95922,159.05514 186.99379,159.03815 187.00907,159.03042 C 187.01964,159.02559 187.0583,159.00584 187.06811,159.00089 C 187.06766,158.99765 187.06825,158.97402 187.06811,158.97137 C 187.07081,158.97146 187.09429,158.971 187.09764,158.97137 C 187.10272,158.96144 187.12269,158.9225 187.12716,158.91232 C 187.13909,158.89283 187.17239,158.84603 187.18621,158.82375 C 187.18567,158.82117 187.18624,158.79695 187.18621,158.79423 C 187.18896,158.79153 187.21229,158.76783 187.21573,158.7647 C 187.21575,158.75404 187.21613,158.71549 187.21573,158.70566 C 187.22107,158.70044 187.23987,158.68125 187.24525,158.67613 C 187.24522,158.67446 187.24538,158.64837 187.24525,158.64661 C 187.23985,158.63607 187.22104,158.59741 187.21573,158.58756 C 187.20935,158.56385 187.19193,158.51822 187.18621,158.49899 C 187.15736,158.41173 187.1265,158.30557 187.09764,158.23328 C 187.09318,158.22349 187.07592,158.18983 187.06811,158.17423 C 187.06812,158.173 187.06804,158.14611 187.06811,158.14471 C 187.06816,158.14351 187.06815,158.11818 187.06811,158.11519 C 187.06803,158.11249 187.06843,158.08904 187.06811,158.08566 C 187.07143,158.08275 187.09487,158.05886 187.09764,158.05614 C 187.09734,158.05275 187.09765,158.02938 187.09764,158.02662 C 187.10083,158.02714 187.12448,158.02648 187.12716,158.02662 C 187.12715,158.02386 187.12745,158.00048 187.12716,157.99709 C 187.1301,157.99574 187.15303,157.99832 187.15668,157.99709 C 187.17316,157.99249 187.20155,157.97265 187.21573,157.96757 C 187.2822,157.93599 187.38024,157.90408 187.51097,157.879 L 187.51097,157.58376 C 187.35985,157.58515 187.18882,157.58054 187.03859,157.58376 C 186.98968,157.58479 186.93978,157.58253 186.89097,157.58376 C 186.84256,157.58497 186.79166,157.58235 186.74335,157.58376 C 186.69542,157.58515 186.64356,157.58217 186.59574,157.58376 C 186.54828,157.58533 186.52498,157.582 186.47764,157.58376 C 186.43067,157.5855 186.37689,157.58183 186.33003,157.58376 C 186.29516,157.5852 186.24908,157.58392 186.21193,157.58376 C 186.2059,157.58386 186.18821,157.5835 186.18241,157.58376 C 186.1479,157.58426 186.09876,157.58315 186.06431,157.58376 C 186.05863,157.58404 186.04053,157.58367 186.03479,157.58376 C 186.01176,157.58359 185.96922,157.58389 185.94622,157.58376 C 185.9405,157.58388 185.92237,157.58346 185.9167,157.58376 C 185.82657,157.58856 185.74062,157.57828 185.65099,157.58376 C 185.60687,157.58647 185.57689,157.5809 185.53289,157.58376 z M 49.695267,157.73138 C 49.696546,157.73138 49.723246,157.73126 49.724791,157.73138 C 49.725411,157.73138 49.751093,157.73135 49.754315,157.73138 C 49.757535,157.73133 49.783221,157.7313 49.783838,157.73138 C 49.785033,157.73124 49.812214,157.73136 49.813361,157.73138 C 49.818084,157.73134 49.838208,157.73122 49.842885,157.73138 C 49.847231,157.73111 49.866775,157.73149 49.872409,157.73138 C 49.878625,157.7314 49.897424,157.73144 49.901932,157.73138 C 49.903521,157.73149 49.928763,157.73146 49.931455,157.73138 C 49.941503,157.731 49.980525,157.73142 49.990503,157.73138 C 50.005488,157.73867 50.038605,157.75571 50.049549,157.76091 C 50.060494,157.76656 50.093611,157.78268 50.108597,157.79043 C 50.123771,157.80467 50.154919,157.83529 50.167643,157.84948 C 50.172703,157.85976 50.19218,157.89798 50.197167,157.90852 C 50.202467,157.91365 50.221409,157.93285 50.226691,157.93805 C 50.234347,157.95323 50.250711,157.98686 50.256214,157.99709 C 50.43965,158.35824 50.539263,159.07468 50.521926,160.09326 C 50.498491,161.46733 50.311064,172.95552 49.783838,180.494 L 78.71687,180.96638 C 82.19632,184.56227 90.23034,186.22282 94.01004,178.4864 L 95.57479,178.22069 L 97.02144,185.95585 L 46.300065,185.92632 L 47.392435,169.54078 C 47.744476,164.15183 48.570775,159.13816 49.252415,158.14471 C 49.257807,158.13733 49.276566,158.12206 49.281939,158.11519 C 49.289222,158.10753 49.307402,158.08991 49.311462,158.08566 C 49.408737,157.98415 49.522468,157.88174 49.606697,157.81995 C 49.617036,157.81478 49.65551,157.79529 49.665744,157.79043 C 49.665794,157.78761 49.665994,157.76433 49.665744,157.76091 C 49.671144,157.75572 49.689889,157.73663 49.695267,157.73138 z M 187.45192,160.24088 C 187.44939,160.24415 187.42502,160.26769 187.42239,160.2704 C 187.4197,160.27032 187.39626,160.27073 187.39287,160.2704 C 187.38988,160.27372 187.36614,160.29716 187.36335,160.29993 C 187.36131,160.30207 187.33561,160.32727 187.33382,160.32945 C 187.33393,160.33099 187.33378,160.3577 187.33382,160.35897 C 187.33379,160.36193 187.33371,160.3872 187.33382,160.3885 C 187.33382,160.39128 187.33418,160.41506 187.33382,160.41802 C 187.3337,160.41874 187.33379,160.44428 187.33382,160.44754 C 187.33664,160.44757 187.35991,160.44782 187.36335,160.44754 C 187.3634,160.45037 187.3636,160.47364 187.36335,160.47707 C 187.36648,160.4766 187.39021,160.47717 187.39287,160.47707 C 187.42441,160.50141 187.47301,160.53986 187.51097,160.56564 L 187.51097,160.24088 C 187.50778,160.24083 187.48205,160.24089 187.48144,160.24088 C 187.47669,160.24066 187.45662,160.24096 187.45192,160.24088 z M 126.98779,162.48466 L 128.72968,167.82842 C 128.93294,168.40099 129.09281,168.86763 129.43824,169.24555 C 129.46766,169.27673 129.52423,169.33364 129.55634,169.36364 C 131.21357,170.86357 136.55825,170.86934 161.76647,170.86934 C 173.72047,170.86931 181.96013,170.9771 187.51097,170.95791 L 187.51097,168.38937 C 173.8055,167.85319 174.75358,163.72027 171.50923,163.72465 C 138.75032,163.76889 129.31052,164.11625 127.16493,162.63228 C 127.13127,162.60811 127.07681,162.56885 127.04684,162.54371 C 127.03654,162.53347 126.99787,162.49496 126.98779,162.48466 z M 85.18251,167.85794 C 81.87911,168.30724 79.33686,171.31446 79.33686,174.88454 C 79.33686,178.76317 82.35332,181.91112 86.06822,181.91113 C 89.78312,181.91116 92.79959,178.76316 92.79958,174.88454 C 92.79958,171.00594 89.78312,167.85794 86.06822,167.85794 C 85.93764,167.85796 85.81318,167.85027 85.68441,167.85794 C 85.66695,167.85814 85.64089,167.85802 85.62537,167.85794 C 85.62373,167.85801 85.59845,167.85799 85.59584,167.85794 C 85.58208,167.85778 85.55066,167.85804 85.5368,167.85794 C 85.53168,167.8581 85.51248,167.85817 85.50727,167.85794 C 85.50554,167.85795 85.47948,167.85789 85.47775,167.85794 C 85.47429,167.85789 85.45171,167.8581 85.44823,167.85794 C 85.44155,167.85859 85.42585,167.85775 85.4187,167.85794 C 85.38877,167.85741 85.33045,167.85815 85.30061,167.85794 C 85.29349,167.85825 85.27772,167.85712 85.27109,167.85794 C 85.24498,167.86116 85.20852,167.85441 85.18251,167.85794 z M 86.09774,169.21602 C 86.10032,169.21432 86.12477,169.21739 86.12727,169.21602 C 88.33592,169.16557 90.45424,170.6066 91.3234,172.72932 C 93.73084,177.69791 87.42538,183.14356 83.17492,179.81496 C 78.89899,177.18961 80.62358,169.5564 85.62537,169.27507 C 85.71852,169.26363 85.82775,169.25166 85.9206,169.24555 C 85.92386,169.24572 85.94746,169.24552 85.95013,169.24555 C 85.95099,169.24529 85.97271,169.24544 85.97965,169.24555 C 85.98595,169.24558 86.0066,169.24549 86.00917,169.24555 C 86.01958,169.24573 86.05803,169.24526 86.06822,169.24555 C 86.07321,169.24278 86.09254,169.21965 86.09774,169.21602 z M 85.5368,169.86554 L 85.77298,173.82169 L 83.61777,171.25314 L 85.38918,174.26454 L 82.20064,172.6998 L 85.44823,174.85501 L 81.69874,175.03215 L 85.56632,175.00263 L 82.28921,177.36451 L 85.68441,175.82929 L 84.00157,179.25401 L 86.09774,176.03595 L 86.27488,179.78544 L 86.39298,176.18357 L 88.10534,179.4902 L 87.01297,175.77024 L 89.84723,177.9845 L 87.19011,175.32739 L 90.99864,175.85881 L 87.57392,174.79596 L 90.88055,173.23122 L 87.13107,174.47121 L 89.72913,171.40076 L 86.80631,174.05788 L 87.66249,170.42649 L 86.51107,173.5855 L 85.5368,169.86554 z M 130.41252,172.37504 C 132.91024,179.62689 132.58704,177.09999 187.51097,178.16164 L 187.51097,172.90646 C 185.18053,172.90658 137.7453,173.74289 130.41252,172.37504 z M 114.29269,204.82136 L 114.29269,207.71467 C 114.29268,211.95814 119.27423,219.65145 122.52974,220.4393 C 124.07956,220.81435 132.05014,221.29359 140.27337,221.53167 C 146.84763,221.722 166.37844,221.8683 187.51097,221.88595 L 187.51097,204.82136 L 114.29269,204.82136 z M 56.338055,207.98038 L 73.993108,208.09847 L 86.33393,208.21657 L 87.21964,215.65649 C 87.67319,219.53674 87.81289,222.99988 87.57392,223.62783 C 87.56867,223.63301 87.54969,223.65256 87.54439,223.65736 C 87.54447,223.66004 87.54412,223.68362 87.54439,223.68688 C 87.54166,223.68685 87.51841,223.68704 87.51487,223.68688 C 87.51484,223.68968 87.51461,223.713 87.51487,223.7164 C 87.50461,223.72152 87.46652,223.74083 87.45582,223.74593 C 87.45316,223.74589 87.42924,223.74632 87.4263,223.74593 C 87.42622,223.74878 87.42605,223.77201 87.4263,223.77545 C 87.42559,223.77559 87.39965,223.77549 87.39678,223.77545 C 87.39367,223.77209 87.36991,223.74863 87.36725,223.74593 C 87.36641,223.74596 87.33918,223.74583 87.33773,223.74593 C 87.33504,223.7459 87.30892,223.74585 87.30821,223.74593 C 87.30852,223.74256 87.30813,223.7191 87.30821,223.7164 C 87.30542,223.71639 87.28209,223.71612 87.27868,223.7164 C 87.27917,223.71323 87.27856,223.68954 87.27868,223.68688 C 87.27525,223.68716 87.25197,223.68691 87.24916,223.68688 C 87.24946,223.6835 87.24908,223.66005 87.24916,223.65736 C 87.24606,223.65797 87.22228,223.65722 87.21964,223.65736 C 87.07613,223.40226 86.98345,222.79661 86.98345,222.03356 C 86.98345,221.56616 86.91333,221.18493 86.74726,220.91167 C 86.68787,220.8197 86.59782,220.71684 86.51107,220.64596 C 85.83637,220.1252 84.30932,220.19209 81.1378,220.64596 C 78.32906,221.0479 76.11985,220.95953 75.469283,220.49834 C 75.464049,220.49307 75.444927,220.4741 75.43976,220.46882 C 75.413391,220.44643 75.37289,220.40596 75.351189,220.38025 C 75.345813,220.37501 75.326975,220.35597 75.321666,220.35073 C 75.321996,220.34764 75.321571,220.32382 75.321666,220.3212 C 75.316233,220.31599 75.297518,220.29691 75.292142,220.29168 C 75.292444,220.28862 75.292066,220.26476 75.292142,220.26215 C 75.292189,220.26067 75.292104,220.23391 75.292142,220.23263 C 75.288779,220.22957 75.265311,220.20572 75.262619,220.20311 C 75.262581,220.20023 75.262619,220.17647 75.262619,220.17358 C 75.26601,220.17123 75.288703,220.1464 75.292142,220.14406 C 75.292104,220.14146 75.292236,220.11755 75.292142,220.11454 C 75.292095,220.11193 75.292284,220.08804 75.292142,220.08501 C 75.292076,220.08241 75.29234,220.05852 75.292142,220.05549 C 75.297527,220.05027 75.316224,220.03117 75.321666,220.02597 C 75.328364,220.00604 75.342733,219.95701 75.351189,219.9374 C 75.356489,219.93216 75.375365,219.9131 75.380713,219.90787 C 75.385304,219.89767 75.405219,219.85894 75.410236,219.84883 C 75.414601,219.84407 75.435206,219.82402 75.43976,219.8193 C 75.93181,219.33288 77.40911,219.04539 79.1302,219.16979 C 83.65983,219.49718 86.04161,217.04465 85.44823,212.67462 C 85.05048,209.74214 84.31008,209.51723 73.343591,208.77751 L 57.22376,209.0137 L 56.515196,221.14786 L 55.747585,221.325 L 56.338055,207.98038 z M 66.08081,210.57845 C 66.082357,210.57848 66.109099,210.57842 66.110334,210.57845 C 66.112672,210.57838 66.137562,210.57833 66.139857,210.57845 C 66.142709,210.58124 66.166193,210.60455 66.169381,210.60797 C 73.488847,215.05584 77.00326,211.59215 78.09687,211.0213 C 78.13467,211.00255 78.18319,210.97489 78.21497,210.96225 C 78.21806,210.96257 78.24186,210.9622 78.24449,210.96225 C 78.24591,210.96224 78.27251,210.96219 78.27402,210.96225 C 78.28147,210.96211 78.29873,210.96207 78.30354,210.96225 C 78.30857,210.96212 78.32816,210.96225 78.33306,210.96225 C 78.33576,210.96217 78.35921,210.96258 78.36259,210.96225 C 78.36528,210.96486 78.38968,210.98915 78.39211,210.99178 C 78.3957,210.99548 78.41391,211.0134 78.42163,211.0213 C 78.4214,211.02452 78.4217,211.04815 78.42163,211.05082 C 78.42701,211.06062 78.44603,211.09938 78.45116,211.10987 C 78.45109,211.12004 78.45135,211.15845 78.45116,211.16892 C 78.45115,211.17898 78.45132,211.21761 78.45116,211.22796 C 78.45184,211.24295 78.45116,211.27087 78.45116,211.28701 C 78.4512,211.28851 78.45116,211.31526 78.45116,211.31653 C 78.45114,211.31938 78.45089,211.3429 78.45116,211.34606 C 78.44492,211.35205 78.42414,211.37273 78.42163,211.37558 C 78.41597,211.38137 78.39855,211.39908 78.39211,211.4051 C 77.48989,212.18847 70.588102,214.82184 69.948389,215.21364 C 69.947243,215.21477 69.919924,215.24212 69.918865,215.24316 C 69.919412,215.24569 69.91879,215.27006 69.918865,215.27268 C 69.916151,215.27538 69.892752,215.29906 69.889342,215.30221 C 69.884276,215.30727 69.865012,215.32675 69.859818,215.33173 C 69.856357,215.33564 69.833816,215.35753 69.830295,215.36125 C 69.828516,215.36285 69.807265,215.38415 69.800771,215.39078 C 69.798078,215.39354 69.773813,215.417 69.771248,215.4203 C 69.769921,215.4202 69.74296,215.42034 69.741724,215.4203 C 69.731897,215.42003 69.693145,215.42045 69.682677,215.4203 C 69.671422,215.42072 69.635502,215.42111 69.62363,215.4203 C 69.383192,215.38169 69.034896,215.11813 68.560784,214.62317 C 67.444155,213.45725 66.569988,213.41603 65.313199,214.50507 C 64.788565,214.95964 64.37635,215.21809 64.102736,215.24316 C 64.100047,215.24333 64.07926,215.24322 64.073212,215.24316 C 64.068024,215.24314 64.048783,215.24335 64.043689,215.24316 C 64.041189,215.24297 64.020308,215.24305 64.014165,215.24316 C 64.003865,215.238 63.965209,215.21918 63.955118,215.21364 C 63.952481,215.21369 63.928736,215.21345 63.925595,215.21364 C 63.922497,215.21025 63.898694,215.18681 63.896071,215.18411 C 63.891353,215.17911 63.871314,215.15973 63.866548,215.15459 C 63.856358,215.14968 63.818307,215.13036 63.807501,215.12507 C 63.807499,215.12183 63.807501,215.0963 63.807501,215.09554 C 63.804111,215.09585 63.780672,215.09547 63.777977,215.09554 C 63.474053,215.12015 58.970993,215.8383 58.463747,215.89268 C 58.463835,215.89544 58.463264,215.91856 58.463747,215.9222 C 58.461758,215.92226 58.435636,215.92225 58.434224,215.9222 C 58.434137,215.92125 58.434135,215.89366 58.434224,215.89268 C 58.43706,215.89263 58.460302,215.89241 58.463747,215.89268 C 58.463425,215.88927 58.463798,215.86585 58.463747,215.86315 C 58.467001,215.86346 58.490584,215.86309 58.493271,215.86315 C 59.00612,215.54892 62.875563,214.52975 63.512265,214.00317 C 63.513544,214.00197 63.539009,213.97666 63.541789,213.97365 C 63.541546,213.97022 63.541729,213.94695 63.541789,213.94413 C 63.544506,213.94151 63.567914,213.91766 63.571313,213.9146 C 63.571313,213.91335 63.571401,213.88662 63.571313,213.88508 C 63.571358,212.71787 64.131338,211.41155 64.781776,210.99178 C 65.134024,210.76451 65.511349,210.63745 65.933193,210.60797 C 65.934474,210.60801 65.961525,210.60797 65.962716,210.60797 C 65.963994,210.60795 65.990651,210.60787 65.99224,210.60797 C 65.996964,210.60801 66.016997,210.60785 66.021763,210.60797 C 66.02291,210.60792 66.050183,210.60797 66.051287,210.60797 C 66.052829,210.60806 66.079574,210.60796 66.08081,210.60797 C 66.080679,210.60714 66.080766,210.58167 66.08081,210.57845 z M 81.87588,216.06982 C 81.88141,216.06982 81.90296,216.06964 81.90541,216.06982 C 81.90818,216.06989 81.93361,216.06989 81.93493,216.06982 C 81.93861,216.06998 81.95912,216.06986 81.96445,216.06982 C 81.96701,216.06974 81.99257,216.06971 81.99398,216.06982 C 81.99411,216.07153 81.99402,216.09622 81.99398,216.09934 C 81.99057,216.09905 81.96725,216.09932 81.96445,216.09934 C 81.96188,216.10241 81.93762,216.12621 81.93493,216.12886 C 81.17243,216.47787 74.114603,218.06053 73.16645,218.72693 C 73.163729,218.72963 73.139553,218.75363 73.136927,218.75646 C 73.134187,218.75922 73.109878,218.78324 73.107403,218.78598 C 73.104588,218.7888 73.081224,218.81253 73.07788,218.8155 C 73.07788,218.8168 73.077785,218.84354 73.07788,218.84503 C 73.077832,218.8463 73.077917,218.87304 73.07788,218.87455 C 73.169738,219.1245 73.235578,219.3578 73.255021,219.55359 C 73.258374,219.59566 73.256268,219.66161 73.255021,219.70121 C 73.254132,219.71685 73.256693,219.745 73.255021,219.76026 C 73.25435,219.76375 73.25588,219.78615 73.255021,219.78978 C 73.241152,219.83567 73.208047,219.9008 73.195974,219.9374 C 73.175822,219.99244 73.140932,220.05833 73.107403,220.11454 C 73.100469,220.12554 73.085239,220.16317 73.07788,220.17358 C 73.0741,220.1786 73.052239,220.1983 73.048356,220.20311 C 73.036263,220.2162 73.002488,220.24953 72.989309,220.26215 C 72.453849,220.74559 71.062529,220.89038 68.44269,220.85262 C 66.268924,220.82132 64.992502,220.75548 64.457018,220.55739 C 64.44024,220.55075 64.4132,220.5348 64.39797,220.52787 C 64.386621,220.52227 64.353876,220.50599 64.338924,220.49834 C 64.333876,220.49322 64.314227,220.474 64.3094,220.46882 C 64.299293,220.46393 64.261244,220.44466 64.250353,220.4393 C 64.247528,220.43634 64.222683,220.41173 64.22083,220.40977 C 64.220902,220.40716 64.220529,220.38331 64.22083,220.38025 C 64.217448,220.38057 64.193997,220.38017 64.191306,220.38025 C 64.191706,220.37738 64.191236,220.3534 64.191306,220.35073 C 64.191392,220.34565 64.191174,220.32628 64.191306,220.3212 C 64.188788,220.31869 64.164297,220.29421 64.161783,220.29168 C 64.161691,220.28414 64.161738,220.2665 64.161783,220.26215 C 64.161735,220.25927 64.16165,220.23411 64.161783,220.23263 C 64.166998,220.22227 64.185847,220.18354 64.191306,220.17358 C 64.190994,220.17052 64.191381,220.14668 64.191306,220.14406 C 64.297043,219.86265 64.769647,219.47683 65.519863,218.90407 C 66.861778,217.87954 67.872748,217.25206 68.619831,217.10314 C 68.623538,217.10289 68.642072,217.10301 68.649355,217.10314 C 68.651117,217.10318 68.677245,217.10323 68.678878,217.10314 C 68.684466,217.10313 68.705644,217.10294 68.708402,217.10314 C 68.715461,217.10323 68.731041,217.103 68.737925,217.10314 C 68.738766,217.1031 68.764404,217.1031 68.767449,217.10314 C 68.769172,217.10317 68.795383,217.1032 68.796972,217.10314 C 68.801955,217.10292 68.821023,217.10288 68.826496,217.10314 C 68.83144,217.10295 68.850503,217.10292 68.856019,217.10314 C 68.85774,217.10317 68.883954,217.10318 68.885542,217.10314 C 68.897057,217.10309 68.933337,217.1029 68.94459,217.10314 C 69.196959,217.09346 69.423674,217.16119 69.594107,217.28028 C 69.645544,217.31902 69.698327,217.37632 69.741724,217.4279 C 69.770057,217.46307 69.80556,217.50678 69.830295,217.54599 C 69.994197,217.81398 70.090004,218.21833 70.096006,218.72693 C 70.099931,219.06437 70.138018,219.31139 70.184577,219.46502 C 70.184322,219.46797 70.184608,219.4919 70.184577,219.49454 C 70.192636,219.5109 70.211072,219.54692 70.2141,219.55359 C 70.213714,219.5565 70.21413,219.5804 70.2141,219.58311 C 70.216791,219.58304 70.240242,219.58343 70.243623,219.58311 C 70.243561,219.58583 70.243872,219.60923 70.243623,219.61264 C 70.247022,219.61233 70.270453,219.61272 70.273147,219.61264 C 70.273074,219.61533 70.273447,219.6388 70.273147,219.64216 C 70.274651,219.64205 70.301435,219.64221 70.302671,219.64216 C 70.307569,219.6422 70.32734,219.64228 70.332194,219.64216 C 70.334884,219.64221 70.359025,219.64228 70.361717,219.64216 C 70.364353,219.64224 70.388154,219.64184 70.391241,219.64216 C 70.392607,219.64231 70.419529,219.64213 70.420765,219.64216 C 70.423867,219.63879 70.447653,219.61534 70.450288,219.61264 C 70.460587,219.60783 70.498887,219.58837 70.509335,219.58311 C 70.515226,219.57702 70.535841,219.55626 70.538859,219.55359 C 70.551233,219.54201 70.584925,219.50788 70.597906,219.49454 C 70.75734,219.32403 70.967184,219.02189 71.217899,218.60884 C 71.546249,218.0681 71.821495,217.72704 72.044557,217.60504 C 72.055635,217.59941 72.088422,217.58286 72.103604,217.57552 C 72.106224,217.57555 72.130035,217.57532 72.133128,217.57552 C 72.143352,217.56989 72.182009,217.55115 72.192175,217.54599 C 72.196786,217.54577 72.21711,217.54601 72.221698,217.54599 C 72.223981,217.54609 72.24498,217.54607 72.251221,217.54599 C 72.256478,217.55146 72.275494,217.57 72.280745,217.57552 C 72.283374,217.57547 72.307137,217.57566 72.310269,217.57552 C 72.312936,217.57547 72.336551,217.57568 72.339792,217.57552 C 72.342504,217.57824 72.366173,217.60165 72.369315,217.60504 C 72.666136,217.58197 80.82691,216.20693 81.87588,216.06982 z M 59.526593,219.90787 C 59.54903,219.90389 59.562867,219.91059 59.58564,219.90787 C 59.589031,219.90774 59.611382,219.90785 59.615164,219.90787 C 59.627466,219.90833 59.663934,219.90809 59.674211,219.90787 C 59.675579,219.90794 59.702543,219.90786 59.703734,219.90787 C 59.706821,219.90784 59.732551,219.90778 59.733258,219.90787 C 59.734451,219.90787 59.761457,219.90784 59.762781,219.90787 C 59.768473,219.90811 59.786524,219.90769 59.792305,219.90787 C 60.240711,219.8912 60.773822,219.97925 61.238956,220.17358 C 61.348334,220.2193 61.45598,220.27621 61.534191,220.3212 C 61.580775,220.34908 61.64626,220.38373 61.681809,220.40977 C 61.688495,220.41488 61.705063,220.43429 61.711332,220.4393 C 61.723817,220.45249 61.761906,220.48941 61.770379,220.49834 C 61.775324,220.50322 61.795401,220.52302 61.799903,220.52787 C 61.802672,220.53057 61.826259,220.55456 61.829426,220.55739 C 61.829374,220.56001 61.829732,220.58383 61.829426,220.58691 C 61.829425,220.59198 61.829514,220.61136 61.829426,220.61644 C 61.829469,220.61897 61.829514,220.64345 61.829426,220.64596 C 61.829425,220.64726 61.829337,220.67399 61.829426,220.67548 C 61.829473,220.67872 61.829426,220.70426 61.829426,220.70501 C 61.826042,220.70469 61.802597,220.70508 61.799903,220.70501 C 61.800151,220.70844 61.799973,220.73172 61.799903,220.73453 C 61.796461,220.73427 61.77319,220.73449 61.770379,220.73453 C 61.767295,220.73422 61.743483,220.73461 61.740856,220.73453 C 61.736015,220.73967 61.716239,220.759 61.711332,220.76405 C 61.698892,220.7708 61.666528,220.78705 61.652285,220.79358 C 61.432734,220.88652 61.020923,220.97536 60.441822,221.00024 C 59.681674,221.03295 59.105628,220.92247 58.818029,220.76405 C 58.814696,220.76278 58.792251,220.76512 58.788505,220.76405 C 58.784401,220.7631 58.763033,220.73559 58.758982,220.73453 C 58.75514,220.73327 58.732936,220.73609 58.729459,220.73453 C 58.7268,220.73186 58.703092,220.7083 58.699935,220.70501 C 58.692695,220.69752 58.675046,220.68022 58.670412,220.67548 C 58.667708,220.67288 58.6442,220.6489 58.640888,220.64596 C 58.640942,220.64335 58.640483,220.61927 58.640888,220.61644 C 58.635485,220.61122 58.616724,220.59214 58.611365,220.58691 C 58.611408,220.5819 58.611232,220.56243 58.611365,220.55739 C 58.611452,220.55594 58.611365,220.53092 58.611365,220.52787 C 58.611188,220.52174 58.611056,220.50454 58.611365,220.49834 C 58.611276,220.49336 58.611365,220.47384 58.611365,220.46882 C 58.614065,220.4662 58.637511,220.44236 58.640888,220.4393 C 58.640845,220.438 58.640976,220.41127 58.640888,220.40977 C 58.646029,220.39927 58.665336,220.36095 58.670412,220.35073 C 58.675222,220.34575 58.69508,220.32617 58.699935,220.3212 C 58.699643,220.31813 58.700008,220.29431 58.699935,220.29168 C 58.701789,220.28971 58.72659,220.2651 58.729459,220.26215 C 58.73472,220.25678 58.753775,220.23802 58.758982,220.23263 C 58.769121,220.22772 58.807649,220.2079 58.818029,220.20311 C 58.838932,220.18736 58.883683,220.15868 58.906599,220.14406 C 58.953714,220.11561 59.029562,220.07911 59.083741,220.05549 C 59.212659,220.00235 59.369533,219.93576 59.526593,219.90787 z M 43.229621,228.94206 C 43.16166,228.94346 43.109223,228.96353 43.05248,228.97159 C 43.025883,228.97591 42.988288,228.99547 42.963909,229.00111 C 42.837899,229.0331 42.725925,229.08525 42.668675,229.1192 C 42.650657,229.13061 42.616986,229.14322 42.609628,229.14873 C 42.609628,229.14874 50.424489,255.79651 57.991371,262.18552 C 63.367178,266.72454 149.88975,266.10776 187.51097,265.61025 L 187.51097,249.13614 C 167.48682,249.2751 148.51921,249.43182 101.03663,246.53807 L 95.04336,235.70295 C 95.04336,235.70297 58.02715,235.66567 50.315261,235.96866 C 46.547363,229.81136 44.249036,228.92116 43.229621,228.94206 z "
         style="fill:#000000" />
      <use
         height="1052.3622"
         width="744.09448"
         transform="matrix(-1,0,0,1,374.3968,-1.662579e-6)"
         id="use1323"
         xlink:href="#path2320"
         y="0"
         x="0" />
    </g>
    <path
       style="opacity:1;fill:#0a0a0a;fill-opacity:1;stroke:none;stroke-width:1;stroke-miterlimit:4;stroke-dasharray:none;stroke-opacity:1"
       d="M 310.40991,-56.082528 C 310.3472,-56.004246 310.27967,-55.934474 310.21955,-55.854096 C 310.27791,-55.932422 310.34912,-56.005873 310.40991,-56.082528 z "
       id="path12075" />
    <path
       style="opacity:1;fill:#0a0a0a;fill-opacity:1;stroke:none;stroke-width:1;stroke-miterlimit:4;stroke-dasharray:none;stroke-opacity:1"
       d="M 310.21955,-55.816024 C 310.2029,-55.79365 310.15984,-55.762412 310.1434,-55.73988 C 310.16381,-55.768129 310.19882,-55.78797 310.21955,-55.816024 z "
       id="path12073" />
    <path
       style="opacity:1;fill:#0a0a0a;fill-opacity:1;stroke:none;stroke-width:1;stroke-miterlimit:4;stroke-dasharray:none;stroke-opacity:1"
       d="M 309.15353,-54.064711 C 309.14471,-54.044549 309.16221,-54.008805 309.15353,-53.988567 C 309.16426,-54.013218 309.1807,-54.040181 309.1916,-54.064711 C 309.1879,-54.056323 309.15721,-54.073111 309.15353,-54.064711 z "
       id="path12067" />
    <path
       style="opacity:1;fill:#0a0a0a;fill-opacity:1;stroke:none;stroke-width:1;stroke-miterlimit:4;stroke-dasharray:none;stroke-opacity:1"
       d="M 309.11546,-53.912423 C 309.08282,-53.834505 309.06981,-53.762995 309.03931,-53.68399 C 309.06923,-53.759338 309.08382,-53.838113 309.11546,-53.912423 z "
       id="path12065" />
    <path
       style="opacity:1;fill:#0a0a0a;fill-opacity:1;stroke:none;stroke-width:1;stroke-miterlimit:4;stroke-dasharray:none;stroke-opacity:1"
       d="M 308.96317,-53.531702 C 308.94287,-53.476295 308.94433,-53.435322 308.9251,-53.379414 C 308.94341,-53.430516 308.94403,-53.481028 308.96317,-53.531702 z "
       id="path12063" />
    <path
       style="opacity:1;fill:#0a0a0a;fill-opacity:1;stroke:none;stroke-width:1;stroke-miterlimit:4;stroke-dasharray:none;stroke-opacity:1"
       d="M 308.88702,-53.30327 C 308.87177,-53.25767 308.8635,-53.196902 308.84895,-53.150982 C 308.86595,-53.202698 308.86915,-53.25196 308.88702,-53.30327 z "
       id="path12061" />
    <path
       style="opacity:1;fill:#0a0a0a;fill-opacity:1;stroke:none;stroke-width:1;stroke-miterlimit:4;stroke-dasharray:none;stroke-opacity:1"
       d="M 308.81088,-53.074838 C 308.79236,-53.014567 308.79008,-52.983348 308.77281,-52.92255 C 308.78841,-52.974846 308.79434,-53.022926 308.81088,-53.074838 z "
       id="path12059" />
    <path
       style="opacity:1;fill:#0a0a0a;fill-opacity:1;stroke:none;stroke-width:1;stroke-miterlimit:4;stroke-dasharray:none;stroke-opacity:1"
       d="M 308.62052,-52.35147 C 308.60722,-52.290424 308.59451,-52.260679 308.58245,-52.199182 C 308.59349,-52.253015 308.60841,-52.297952 308.62052,-52.35147 z "
       id="path12055" />
    <path
       style="opacity:1;fill:#0a0a0a;fill-opacity:1;stroke:none;stroke-width:1;stroke-miterlimit:4;stroke-dasharray:none;stroke-opacity:1"
       d="M 309.34389,-46.488378 C 309.35752,-46.460445 309.36805,-46.440005 309.38196,-46.412234 C 309.36944,-46.436775 309.35621,-46.463711 309.34389,-46.488378 z "
       id="path12043" />
    <path
       style="opacity:1;fill:#0a0a0a;fill-opacity:1;stroke:none;stroke-width:1;stroke-miterlimit:4;stroke-dasharray:none;stroke-opacity:1"
       d="M 309.49618,-46.183802 C 309.51078,-46.156448 309.51937,-46.134843 309.53425,-46.107658 C 309.52093,-46.131685 309.5093,-46.159644 309.49618,-46.183802 z "
       id="path12041" />
    <path
       style="opacity:1;fill:#0a0a0a;fill-opacity:1;stroke:none;stroke-width:1;stroke-miterlimit:4;stroke-dasharray:none;stroke-opacity:1"
       d="M 309.61039,-45.993442 C 309.65289,-45.91831 309.68004,-45.838786 309.72461,-45.765009 C 309.68196,-45.835079 309.65145,-45.922155 309.61039,-45.993442 z "
       id="path12039" />
    <path
       style="fill:url(#linearGradient1363);fill-opacity:1;fill-rule:evenodd;stroke:#000000;stroke-width:0.45092353px;stroke-linecap:butt;stroke-linejoin:miter;stroke-opacity:1;display:none"
       d="M 82.143025,696.88368 L 107.41898,644.10385 L 117.40455,631.72341 L 142.68053,627.48799 L 192.92043,624.55577 L 258.45074,625.85898 L 301.20146,631.39761 L 309.31474,634.65562 L 329.90998,671.47117 L 343.64014,702.0965 L 304.634,694.92888 L 287.78335,693.62567 L 268.12426,692.32246 L 242.84829,691.01926 L 211.33133,690.69346 L 178.56617,691.67086 L 149.85765,692.32246 L 125.82988,694.60307 L 83.079163,701.7707"
       id="path8734" />
    <path
       style="fill:url(#linearGradient1360);fill-opacity:1;fill-rule:evenodd;stroke:#000000;stroke-width:0.45092353px;stroke-linecap:butt;stroke-linejoin:miter;stroke-opacity:1;display:none"
       d="M 121.14915,717.40916 L 136.1275,783.22104 L 139.87209,791.04027 L 147.36127,794.29829 L 174.82158,794.29829 L 212.26747,794.94989 L 277.17368,793.64668 L 282.16647,791.69188 L 287.15926,787.13066 L 289.65565,775.40181 L 302.13761,716.10596 L 279.04598,715.45436 L 272.805,738.91205 L 267.18812,749.98931 L 154.85044,748.6861 L 149.85765,733.69923 L 145.48897,715.45436 L 121.14915,717.40916 z "
       id="path5172" />
  </g>
</svg>
