<?xml version="1.0" encoding="UTF-8" standalone="no"?>
<!-- Created with Inkscape (http://www.inkscape.org/) -->
<svg
   xmlns:dc="http://purl.org/dc/elements/1.1/"
   xmlns:cc="http://web.resource.org/cc/"
   xmlns:rdf="http://www.w3.org/1999/02/22-rdf-syntax-ns#"
   xmlns:svg="http://www.w3.org/2000/svg"
   xmlns="http://www.w3.org/2000/svg"
   xmlns:sodipodi="http://inkscape.sourceforge.net/DTD/sodipodi-0.dtd"
   xmlns:inkscape="http://www.inkscape.org/namespaces/inkscape"
   id="svg3256"
   sodipodi:version="0.32"
   inkscape:version="0.43"
   width="220pt"
   height="250pt"
   sodipodi:docbase="C:\foo\wikipedia\transfer"
   sodipodi:docname="skull_07.svg"
   version="1.0">
  <metadata
     id="metadata3261">
    <rdf:RDF>
      <cc:Work
         rdf:about="">
        <dc:format>image/svg+xml</dc:format>
        <dc:type
           rdf:resource="http://purl.org/dc/dcmitype/StillImage" />
        <cc:license
           rdf:resource="http://web.resource.org/cc/PublicDomain" />
      </cc:Work>
      <cc:License
         rdf:about="http://web.resource.org/cc/PublicDomain">
        <cc:permits
           rdf:resource="http://web.resource.org/cc/Reproduction" />
        <cc:permits
           rdf:resource="http://web.resource.org/cc/Distribution" />
        <cc:permits
           rdf:resource="http://web.resource.org/cc/DerivativeWorks" />
      </cc:License>
    </rdf:RDF>
  </metadata>
  <defs
     id="defs3259" />
  <sodipodi:namedview
     inkscape:window-height="540"
     inkscape:window-width="812"
     inkscape:pageshadow="2"
     inkscape:pageopacity="0.0"
     borderopacity="1.0"
     bordercolor="#666666"
     pagecolor="#ffffff"
     id="base"
     inkscape:zoom="0.78067696"
     inkscape:cx="184.23317"
     inkscape:cy="143.7577"
     inkscape:window-x="176"
     inkscape:window-y="176"
     inkscape:current-layer="svg3256" />
  <path
     style="fill:#000000"
     d="M 40.424453,305.76051 C 30.861761,301.76353 45.097694,283.0887 28.720413,287.25821 C 15.285566,287.4452 7.6098412,268.93426 18.042286,260.05569 C 28.290437,249.80709 42.825907,259.86625 52.896745,265.25649 C 56.952716,268.3451 61.07837,270.54593 65.65407,267.01296 C 112.59747,248.24764 159.62558,229.61938 205.74303,208.89063 C 221.95695,204.03009 217.87747,186.83734 221.7862,174.4685 C 229.45266,162.98788 249.87997,168.51871 255.24457,179.84992 C 262.13126,190.76058 236.10546,200.88566 248.32874,207.69708 C 255.41273,186.35609 275.48154,213.24976 261.49343,223.07189 C 252.69209,232.72711 236.40368,229.38928 230.16624,218.5499 C 222.213,208.29178 208.98558,224.73862 198.66457,226.2665 C 162.26767,242.14012 123.51441,252.1127 88.083583,270.28427 C 74.45864,273.56922 62.968457,282.78093 64.117736,297.4925 C 58.479347,303.97425 48.766492,306.7035 40.424453,305.76051 z M 195.47707,302.96045 C 180.54295,298.7336 193.80905,273.60935 179.42849,269.27534 C 169.52985,265.96564 150.36832,258.47833 147.61966,252.15091 C 153.67692,251.6247 160.17614,243.97273 165.80947,249.16981 C 177.40933,255.20694 190.77191,264.37746 203.99331,257.40765 C 215.66664,249.43755 232.69459,255.05658 236.85588,268.61295 C 238.40761,284.19995 214.76754,262.75879 213.27828,271.99794 C 231.68081,271.67579 236.16599,300.03925 216.9659,302.84381 C 209.99852,304.34169 202.40067,304.96305 195.47707,302.96045 z M 103.03223,239.11637 C 83.397549,234.45195 66.091665,222.93367 46.273921,219.01985 C 34.631853,228.40031 12.950282,228.83246 11.097018,210.01442 C 5.815964,194.50877 21.806406,190.30603 33.537507,193.59648 C 41.719474,192.667 26.733052,178.10473 40.325588,178.73529 C 54.88638,170.67848 72.371696,185.46801 60.161082,199.93875 C 54.287259,214.33151 77.465092,216.92033 86.609506,221.46244 C 97.852552,226.93115 117.38828,228.89912 123.51343,236.40129 C 117.88678,242.43011 110.17047,241.31474 103.03223,239.11637 z M 155.34099,212.02831 C 149.28228,204.11145 139.55522,205.83992 138.02044,215.9292 C 131.90469,209.83053 124.3268,199.80635 119.87268,212.75374 C 108.00114,227.66816 99.10106,184.43668 93.512355,205.95699 C 95.359576,213.57857 79.120465,212.79942 80.717178,205.04075 C 82.727344,192.3149 67.68942,173.57036 81.211897,165.07683 C 87.235084,166.57537 98.634484,169.28291 91.016783,159.46615 C 81.740931,143.47069 59.92002,167.1642 51.263104,146.75139 C 40.547599,135.53768 43.683515,118.22538 55.772387,109.57219 C 58.793349,105.81043 64.422279,103.057 62.713245,97.466501 C 62.909221,92.188681 61.748649,86.468147 62.788021,81.46558 C 66.99735,75.267759 76.799206,67.3866 69.453291,60.021208 C 62.049017,53.061872 72.310918,71.593211 62.411891,73.822831 C 52.41972,79.166157 60.468059,103.16103 50.367584,101.57273 C 44.265938,88.93628 42.252846,74.134311 48.874003,61.18307 C 59.007424,32.934796 85.056129,11.934572 114.64685,7.4490899 C 140.25759,3.6003774 167.59544,3.7408886 191.99534,13.259436 C 213.89898,22.892733 227.6307,45.129892 234.04358,67.351565 C 235.16267,74.648031 234.99638,82.058011 235.38554,89.414223 C 225.18422,96.611231 228.78279,109.08263 232.61562,118.96831 C 237.63367,133.02973 229.03108,147.76351 219.48075,157.58799 C 208.34824,161.96958 190.32563,156.87707 185.99378,172.06744 C 194.41511,173.66177 207.92908,173.84215 200.10239,187.41577 C 194.24541,198.58107 185.08274,215.65646 169.86755,210.48311 C 166.02852,218.34995 163.13053,218.45835 155.34099,212.02831 z M 133.60241,151.61858 C 137.5971,144.26396 139.30702,132.0612 137.90203,124.58376 C 127.92694,126.64174 119.20778,159.72204 133.60241,151.61858 L 133.60241,151.61858 z M 162.89159,152.5668 C 164.91298,143.42429 157.21588,122.02979 147.10571,126.54735 C 151.48278,134.16733 148.09322,160.37668 162.89159,152.5668 z M 132.17245,118.93642 C 141.13684,110.64794 134.6325,91.474392 126.35571,83.872875 C 113.3041,73.671944 91.115725,69.22227 79.786304,84.405437 C 70.374261,93.129592 72.993628,107.94765 82.774113,115.22706 C 94.48275,124.06149 110.3802,120.67503 124.06807,120.90336 C 126.84831,120.70788 129.69959,120.33988 132.17245,118.93642 z M 203.08355,117.8414 C 214.08466,112.81696 224.56251,98.200981 215.4096,86.883735 C 206.90666,73.104718 188.5574,70.083323 174.7241,77.201745 C 159.62108,81.270484 153.4449,96.450759 152.98539,110.77424 C 157.41029,125.50827 178.95298,118.66197 190.81061,119.96914 C 194.94985,119.73429 199.24938,119.63425 203.08355,117.8414 z "
     id="path3265" />
</svg>
